<svg xmlns="http://www.w3.org/2000/svg" width="546" height="404"><path d="M351 1.375c4.712 2.806 8.964 6.343 13.266 9.73 4.039 3.162 8.19 6.157 12.359 9.145 6.324 4.54 12.615 9.121 18.875 13.75 6.14 4.538 12.304 9.04 18.5 13.5 8.584 6.18 17.102 12.448 25.609 18.734 3.96 2.926 7.926 5.846 11.891 8.766 4.764 3.509 9.527 7.019 14.285 10.535C473.495 91.23 481.222 96.9 489 102.5a2281.75 2281.75 0 0 1 23.172 16.938c3.314 2.45 6.638 4.885 9.969 7.312l2.56 1.871c1.6 1.17 3.202 2.335 4.807 3.498 5.42 3.967 10.734 8.123 15.492 12.881.273 2.512.273 2.512.375 5.688l.148 3.136c-1.102 6.687-6.571 10.204-11.752 13.969l-2.396 1.707-5.133 3.719-2.641 1.902c-4.056 2.93-8.077 5.905-12.101 8.879l-4.738 3.492-2.374 1.75c-2.413 1.777-4.828 3.553-7.243 5.328-7.405 5.446-14.8 10.905-22.145 16.43-8.15 6.13-16.36 12.177-24.577 18.218-3.976 2.924-7.95 5.853-11.923 8.782l-4.75 3.5-2.375 1.75-9.5 7a12748.827 12748.827 0 0 1-16.73 12.32c-7.405 5.446-14.8 10.905-22.145 16.43-9.757 7.339-19.6 14.56-29.437 21.791-8.212 6.038-16.417 12.082-24.563 18.209-9.757 7.339-19.6 14.56-29.437 21.791-8.212 6.038-16.417 12.082-24.563 18.209-8.142 6.125-16.346 12.165-24.555 18.2-2.463 1.813-4.923 3.63-7.382 5.448-7.332 5.42-14.67 10.83-22.063 16.164l-1.726 1.257c-4.781 3.429-8.18 4.124-14.024 4.243l-3.61.114c-7.5-.877-12.84-5.993-18.452-10.676l-4.27-3.516-2.057-1.7A496.652 496.652 0 0 0 170 383a1246.054 1246.054 0 0 1-10.68-8.625c-5.712-4.657-11.444-9.281-17.257-13.813-6.003-4.68-11.876-9.507-17.738-14.364a581.627 581.627 0 0 0-13.575-10.885c-5.067-3.942-9.988-8.022-14.865-12.195-4.365-3.719-8.847-7.263-13.373-10.782-5.481-4.276-10.833-8.702-16.186-13.137a582.286 582.286 0 0 0-13.576-10.887c-5.064-3.938-9.984-8.015-14.856-12.188-3.887-3.313-7.862-6.49-11.894-9.624a456.925 456.925 0 0 1-14.063-11.375l-1.587-1.334C.43 245.361.43 245.361-.344 241.117c-.241-3.468-.283-6.127 1.619-9.128 4.37-4.874 8.929-8.562 14.412-12.114 1.694-1.128 3.387-2.257 5.079-3.387l2.623-1.74c4.228-2.83 8.387-5.757 12.549-8.685l5.027-3.528 2.519-1.769C47.653 197.84 51.827 194.92 56 192c4.966-3.475 9.931-6.951 14.895-10.43 13.658-9.57 27.347-19.093 41.042-28.611 10.847-7.54 21.687-15.09 32.505-22.67a7364.306 7364.306 0 0 1 21.992-15.328c6.197-4.309 12.385-8.63 18.566-12.961 11.957-8.378 23.948-16.708 35.937-25.041A9738.254 9738.254 0 0 0 251 56a8648.268 8648.268 0 0 1 27.14-18.926 8007.95 8007.95 0 0 0 11.657-8.117A6835.69 6835.69 0 0 1 307 17l3.067-2.127c3.015-2.089 6.036-4.17 9.058-6.248l2.783-1.93 2.6-1.78 2.27-1.565C333.8-.916 343.342-2.087 351 1.375Z" fill="#46996C"/><path d="M351 1.375c4.712 2.806 8.964 6.343 13.266 9.73 4.039 3.162 8.19 6.157 12.359 9.145 6.324 4.54 12.615 9.121 18.875 13.75 6.14 4.538 12.304 9.04 18.5 13.5 8.584 6.18 17.102 12.448 25.609 18.734 3.96 2.926 7.926 5.846 11.891 8.766 4.764 3.509 9.527 7.019 14.285 10.535C473.495 91.23 481.222 96.9 489 102.5a2281.75 2281.75 0 0 1 23.172 16.938c3.314 2.45 6.638 4.885 9.969 7.312l2.56 1.871c1.6 1.17 3.202 2.335 4.807 3.498 5.42 3.967 10.734 8.123 15.492 12.881.395 5.129-.1 7.799-3 12-5.569 5.938-12.373 10.518-19.004 15.176-4.48 3.151-8.898 6.387-13.308 9.637l-2.412 1.776a1179.425 1179.425 0 0 0-18.933 14.324l-2 1.54-1.743 1.349c-3.151 2.36-4.876 3.451-8.788 3.323L472 204l-.125 2.25c-1.237 3.887-3.395 4.801-6.875 6.75l-3 1v-2l-6-1 1-8h-2l-1 5c-4.75.125-4.75.125-7-1l-2 2-3-8 6-1h-5c-2-3.75-2-3.75-2-6l-1-1-1 2-2-1h-3c-2-.125-2-.125-4-1-3-5.036-3-5.036-3-8l-2-1h4v-2c2 1 2 1 3 2l2-2v-3l1.824-.293c2.64-.858 3.351-1.816 4.988-4.02 2.992-3.718 5.94-5.563 10.188-7.687l-1-2v2l-6-1 1 4h-5l-.938 1.875L437 176l-5-2v3c-3.724.693-7.21 1.111-11 1l1 3h-2v-2h-3c-.125-6.75-.125-6.75 1-9h-4l-1 5h-3c-.2-3.716-.152-4.772 2-8l3-2-1-3c3.663-.75 6.424-1.238 10 0l-1 4h2l.375-1.938L426 162l2-1 1.813 2c2.062 2.337 2.062 2.337 5.187 2l.313-2.875C436 159 436 159 439 157c1.205-2.552 1.205-2.552 2-5 2 2 2 2 2 6h-2l1 2 9-3 1 4 7-1 1 2h5l1-2-1.875 1.063L462 162l-2-1v-3l2.938-.813L466 156l1-3-2 1v2l-3 1v-2l-5 1 1-4h-3l-2 4-3-1v-2l-2-1 2-4h2l1-4h-3l-2 4-2-2 1-2-2.375-.25L442 143a178.795 178.795 0 0 1-2-4 89.286 89.286 0 0 0-5-2l-1.438-1.688L432 134c-3.15.233-3.15.233-6 1-.692 1.847-.692 1.847-1 4l2 3-1.875-.5c-4.372-1.029-7.202.432-11.125 2.5-1.052 2.577-1.052 2.577-1 5 5.248 3.913 5.248 3.913 11 7-1 3-1 3-3.375 4.188C418 161 418 161 415 161l-.75-3.313c-.949-3.632-.949-3.632-3.063-5.625-2.686-1.305-4.232-1.505-7.187-1.062-3.089 1.802-3.848 2.544-5 6-2.063 1.188-2.063 1.188-4 2v-2l-3-1-2 1 1-1.813c1.452-3.177 1.096-4.9 0-8.187l5-3c-2.156 0-3.924.447-6 1l1-4-1.938-.813C387 139 387 139 386 136l2-3 2-.375 2-.625c1.146-2.5 1.146-2.5 2-5l-2.746.438c-6.835 1.041-13.342 1.8-20.254 1.562v-1l6.055-.488c2.34-.386 2.34-.386 3.945-3.512h2v-2l-2-1h2v-5l5 2-1 2h21v-2l2-1-2.703.105-3.547.082-3.516.106c-3.53-.32-4.649-.99-7.234-3.293-4.435-1.928-7.301-2.119-12-1l-1 4h-2l-1 7c-2.995.872-5.636 1.108-8.75 1.063l-2.422-.028L364 125v-1h8c-.348-1.975-.348-1.975-1-4l-2-1-1-1v4l2 1c-3.053.294-5.957.445-9 0-2.563-2.5-2.563-2.5-4-5l-5 1v-3l-2 2c-2.625.125-2.625.125-5 0-1.498 3.371-2 5.204-2 9h-2l-1 2h-2l-1 2c-3.45 1.15-6.353 2-10 2l-1-1-1 4-5-1v-2c-1.975.348-1.975.348-4 1l-1 2-2 1-1 2c-2-1.313-2-1.313-4-3v-3l-1 3-3-1v-3l-1.875.625L300 133l-2-2 1-1-3-1-4 5-1-4h2l1-5-3 3v-2l-4 2-1-1-2 1-.438-2.938c-.238-2.927-.238-2.927-1.562-4.062l-1 4-.75-2.375c-1.404-2.948-2.257-3.527-5.25-4.625l-2 3c-3-2-3-2-4-5-2-1.209-2-1.209-4-2 2.625-5.75 2.625-5.75 6-8-2.093-.225-2.093-.225-3.5 1.375L266 109l-2 2-1-1v3l-3-1c-1-3-1-3 0-6l-2.875-1.25c-3.132-1.754-3.99-2.459-5.125-5.75l1 5-8 2v-2h-2l-.875-2.938c-.767-3.169-.767-3.169-3.125-4.062l-1 2-1-3h-2l-1-2c-2.376.462-4.727.925-7.063 1.563-2.921.66-5.231.79-7.937-.563l1-3-2.313-.375C215 91 215 91 212 89l3-1c3.096-3.194 3.096-3.194 4.207-7.352 1.184-3.955 4.088-5.544 7.356-7.773l2.046-1.447A658.102 658.102 0 0 1 235 67c1.249-.866 2.498-1.731 3.746-2.598 2.588-1.789 5.183-3.567 7.781-5.34 5.2-3.552 10.368-7.15 15.536-10.75l2.948-2.052 5.988-4.17c2.96-2.062 5.922-4.121 8.884-6.18l2.912-2.024 5.77-4.01a2612.54 2612.54 0 0 0 13.833-9.677C337.712-4.685 337.712-4.685 351 1.375ZM250 95c-3.058 1.788-3.058 1.788-6 4v3l1.25-1.375c1.814-1.685 3.503-2.618 5.75-3.625l-1-2Z" fill="#03693A"/><path d="m218 79 2 1c-.375 2.438-.375 2.438-1 5l-2 1-2 3-1 1 9 1-4 4c2.397.68 2.397.68 5 1l2-2 2 1 3-3 1 2 3-1v3h2l1 2h4l1 6c3.766 1.255 5.372.37 9-1l-1-2 1-2c2 1 2 1 2.813 3 1.047 2.285 1.047 2.285 3.812 2.75L261 105l-.688 2.313L260 110c1.334 1.835 1.334 1.835 3 3l-1-4h3c2.688-2.438 2.688-2.438 5-5l2 4-1.875.188c-2.403.64-2.403.64-3.375 3.374L266 114l2.438 1.313C271 117 271 117 272 120l1-4c3.142 1.536 6.086 3.057 9 5l2 1-1 2 2 1v2l1-2 2 1a93.365 93.365 0 0 0 4-1h3l-2 6 3-3 4 2v2h4l2 3 3-3-1 4 4 1 1-2 2-1 1-2 9 3v-4l4-1 1 2 7-1 1-3a124.97 124.97 0 0 1 5-2l1-2-2-1 3-6 2.313.125c2.914.096 2.914.096 5.687-2.125l-1 4 6-2 2 3c3.036 1.923 4.219 2 8 2v-4l3 1 1 5h5l-1-5h2v-4h2l1-3c1.768-.25 3.54-.474 5.313-.688l2.988-.386c2.699.074 2.699.074 4.367 1.43L395 114c3.737 2.491 5.745 2.207 10.188 2.125l3.855-.055L412 116l-4 2v2c-4.655.92-9.147 1.122-13.875 1.063l-2.086-.014c-1.68-.012-3.36-.03-5.039-.049l-2-4c-1.46 2.647-2 3.894-2 7l-2 1 6 1v1h7l-2 6h-4c-1.011 3.05-1.011 3.05 0 6 2.017 1.134 2.017 1.134 4 2l-1 3h2l2-3 2 4h-2l-1 3-3-1c.833 2.167.833 2.167 3 3l-3 6 2-1 3 2h3l.25-1.813c.99-2.888 2.1-3.714 4.75-5.187 3.393-.609 4.735-.15 7.75 1.563 2.853 3.09 3.012 5.309 3.25 9.437l8-3v-2l-3.25-1.813c-2.74-1.561-5.283-3.213-7.75-5.187.318-2.946.559-4.559 2.688-6.688 2.685-1.524 5.356-2.439 8.312-3.312l1 2 1-1c-.41-2.054-.41-2.054-1-4 1.625-1.563 1.625-1.563 4-3 3.25.313 3.25.313 6 1l1 3 2.25.188c3.579 1.057 4.505 2.916 6.75 5.812 2.13.87 2.13.87 4 1v3l2-3h3l-1 4 2 1c-3 1-3 1-5 1 .947 2.158.947 2.158 3 4h2l1-2h3l-1 4 2.313-.563C462 155 462 155 465 156l-1-4 3 1-1 4-6 1v3c2.437-.27 2.437-.27 5-1l2-3 2 1c-1.688 2.5-1.688 2.5-4 5-2.75.313-2.75.313-5 0l-1-3-7 2-2-2v-2l-9 3v-3h2l-1-5-1 2h-2l1 3-3 2c-.733 3.066-.733 3.066-1 6-2.313.188-2.313.188-5 0-1.688-1.5-1.688-1.5-3-3h-2l-1 5-3-3h2l-2-3h-8v2l4 1c-2.363 2.526-3.665 3.888-7 5v5c2.224-1.925 2.224-1.925 3-5h4c.125 6.75.125 6.75-1 9h3l1-1c1.849-.234 3.705-.413 5.563-.563l3.066-.253L432 177l-2-5 7 4 1-3c.651-1.34 1.315-2.676 2-4h4v-3l6 1-1-4 3 2c-1.141 3.423-2 4.148-5 6h-3l-1 3a90.576 90.576 0 0 1-4 4l-2 2-3-1 1 4-2 1 1 2c-3.875-.875-3.875-.875-5-2l-2 1 1.5 2.375C430 190 430 190 430 192c3.095.995 4.898.856 8 0l1 1 2-1v2l2 1v5l5-2v2h-2l-1 2h-2c1.312 1.562 1.312 1.562 3 3h3v3l3-1 2 1 1-5h2c.125 5.75.125 5.75-1 8l6 1v2l1.688-1.875c2.378-2.186 4.276-3.113 7.312-4.125v-2l-3-2c4.21-.957 6.257-1.132 10 1-8.751 6.893-17.502 13.76-26.61 20.178-4.906 3.461-9.748 7.005-14.577 10.572l-2.434 1.797a19063.02 19063.02 0 0 0-4.923 3.639c-3.982 2.942-7.97 5.878-11.956 8.814l-4.676 3.445L389 271v-7l-5 1c1.293-2.884 2.66-4.872 5-7l-3-1-2 2-1-2h-3v-5h-2v2l-3-1h2l1-4-2.438-.688L373 247c-.813-2.625-.813-2.625-1-5l6-1v-2l-6-2-.563 1.813C370 241 370 241 366.438 242.5c-3.554 1.084-3.554 1.084-4.375 3.688L362 248l-3-1c1.045-3.883 2.1-7.454 4-11l1-3h-2v3h-2l.188-2.813c.135-3.135.135-3.135-1.563-4.812L357 227c-1.188-2.188-1.188-2.188-2-4l-3 1-2-1v-2l-3-1 1-2-1-2-2 1-1-3-1.375 2.5L341 219h-2v-4c-2.287-2.223-2.287-2.223-5.25-4.188l-2.953-2.105c-2.396-1.462-4.064-2.27-6.797-2.707 1.186-3.375 2.276-5.647 5-8l-2-6-5 1 1 5-2-1c-.414-2.285-.414-2.285-.625-5.063l-.227-2.785L320 187l-2 1-1-4-2.22-.313c-3.049-.753-4.742-1.805-7.249-3.671l-2.48-1.836-2.551-1.93-2.55-1.883c-4.303-3.211-8.29-6.436-11.95-10.367 7.7.659 15.042 2.253 22.563 4 10.616 2.683 10.616 2.683 21.437 4 2.196-1.423 2.196-1.423 4-3-5.639-5.115-11.523-9.726-17.688-14.188-1.65-1.2-3.3-2.402-4.949-3.605l-2.31-1.681c-1.684-1.251-3.323-2.563-4.948-3.89-2.1-1.819-2.1-1.819-5.105-2.636 3.977 4.226 8.313 7.593 13 11 4.687 3.407 9.023 6.774 13 11-5.05-.666-10.003-1.582-14.98-2.664l-4.526-.961c-2.35-.5-4.701-1.004-7.05-1.515-2.286-.495-4.574-.98-6.862-1.462l-2.125-.47c-5.882-1.225-9.046-.182-14.457 2.072l-2-6-5 1-1-3-3-1c-1.952-1.952-2.848-3.532-4-6h-2v-2h-2l4 7c-2.606.93-3.642 1.15-6.25.063L254 149l2 4-3-1v-2l-2-1 4-4-1-2-2 2a88.982 88.982 0 0 1-4 2l-2-2a87.869 87.869 0 0 0-3.625-2.125L239 141l1-6-4-1c-2.277 2.815-2.277 2.815-2 6-3.088 1.765-4.233 2-8 2l-2-7 7-1-5-2v-2l-4-2 1-2-2.438-.438C218 125 218 125 217 124l-1.938.5C213 125 213 125 211 124v-2h-2v-3l-2.313 1C204 121 204 121 201 121l1-4h-7l-.375 2.438L194 122l-2 1-.438-1.938c-.372-2.037-.372-2.037-1.562-3.062l-3-1c-1.188-2.563-1.188-2.563-2-5l-1 4-6 1v-2h3l-1.188-2.688c-.812-3.312-.812-3.312.204-5.71 2.508-3.29 5.496-5.317 8.922-7.54 1.426-.951 2.852-1.905 4.277-2.859l2.316-1.54c4.534-3.053 8.997-6.207 13.469-9.35l5.188-3.637L218 79Zm115 123c.38 2.62.787 3.792 2.707 5.668l2.106 1.52 2.082 1.542c2.116 1.277 3.654 1.984 6.105 2.27 2.853-1.516 2.853-1.516 5-4 .495-2.46.495-2.46 0-5-1.535-1.895-1.535-1.895-3.688-3.313l-2.074-1.55c-5.258-2.67-8.144-.88-12.238 2.863Zm57 58 1 3v-3h-1ZM250 95v3l-3 1c-1.667 1.5-1.667 1.5-3 3v-3c3-2.188 3-2.188 6-4Zm178 91 2 1Z" fill="#258454"/><path d="m188 251 1 3c2.015.733 2.015.733 4 1l-7 1-1-2-2 2 2 1-2 7h7c-1.375 1.5-1.375 1.5-3 3h-2c3.133 1.044 3.99.934 7 0l1 5h-3l-1 2v-2c-2.343.256-4.678.593-7 1l-1 2 3 1-3 2 1 2c-2.062.338-4.124.67-6.188 1l-3.48.563c-2.836.372-5.48.523-8.332.437l-1 2c2.083-.145 4.167-.29 6.25-.438l3.844-.265c4.536-.345 9.056-.807 13.578-1.309C189 282 189 282 191 284l-2.438.375L186 285l-1 2 10-1 2 5c3.545-1.398 3.545-1.398 7-3l1.234 1.508c1.638 1.687 1.638 1.687 3.782 1.61l2.234-.243c4.662-.197 6.664 1.106 10.176 4.012 2.202 1.557 3.96 1.509 6.574 1.113l-1.063 1.813c-1.27 2.295-1.27 2.295.063 5.187h4l2-4 2 2h-2l2 3 3.313-.5C242 303 242 303 245 303l-1 3c1.148 1.37 1.148 1.37 4.25 1.188 3.65.035 3.65.035 6.375-1.313 2.375-.875 2.375-.875 5.188 0L262 307l1-5 3.375-.438c3.446-.346 3.446-.346 5.625-1.562v2l4-1 1 2c-3.228 2.152-4.284 2.2-8 2v5l4-1 2 5-2 2-3-1-1-2-3 2 2 1-1 3h5c0 2 0 2-1.438 3.5L269 324l-1 2h-3l-1-1v2h3c-1 2-1 2-2 3h6c2 7.625 2 7.625 2 11l4 1v8l1.61-1.129 2.14-1.433 2.11-1.442c2.587-1.204 3.488-.795 6.14.004a1363.7 1363.7 0 0 1-27.485 20.273 431.777 431.777 0 0 0-13.327 9.977C230.47 390 230.47 390 227 390v2c-2.983 1.524-5.818 2.94-9 4v2c-6.113 3.623-10.887 5.186-18 4-8.123-2.426-14.113-8.277-20.309-13.781-4.284-3.79-8.79-7.275-13.337-10.741-4.252-3.273-4.252-3.273-5.354-5.478l6 1 2-5 4 3 .55-2.809.762-3.628.739-3.622L176 358l3-1-1.125-2.25c-.875-2.75-.875-2.75-.438-4.875 2.324-2.789 5.233-3.567 8.563-4.875l2-2c2.625-.625 2.625-.625 5-1l-1-4c-3.003 1.467-5.884 2.925-8.688 4.75L181 344l-3-1 2-1v-3l-3-2 1-7h2c-.977-2.707-1.82-4.786-3.688-7-1.312-2-1.312-2-1.062-4.625C176 316 176 316 177 314l2 1-1 6 1.563-1.563c3.482-2.054 5.558-1.307 9.437-.437 2.014.623 4.02 1.276 6 2l1-2-2.188-.75c-3.157-1.403-5.365-2.803-7.812-5.25-.642-3.763-.161-4.758 2-8h-4l-.813-1.938c-1.074-2.393-1.074-2.393-4.187-3.062l4-1-6-2 1-2c2.582-.45 2.582-.45 5.813-.688l3.207-.261c2.606-.045 4.52.157 6.98.949v-3l-3.184.219c-3.61.243-7.223.46-10.837.665-1.636.096-3.27.207-4.905.323-3.758.17-5.613.152-8.637-2.207L165 289l-1 2c-3-1-3-1-5-4-.625-2.188-.625-2.188-1-4l-5 1v-2l7-3-1-3 1-2h-5l3-1v-2l2.773.035c1.189.01 2.377.018 3.602.027l3.586.036c2.958.117 2.958.117 5.039-1.098h-13l1-2h4v-2l-3-1c1.25-1.563 1.25-1.563 3-3 2.188.313 2.188.313 4 1l.875-2.375C171 258 171 258 173 256l1-3 4 3v-4l4 1v-1c1.207.03 1.207.03 2.438.063 2.496.233 2.496.233 3.562-1.063Zm85 82h2l-1 3-1-3Z" fill="#529F75"/><path d="m102 160 1 2-5 5 1.5 2.313C101 172 101 172 101 175l2 2-3 6h2l2-2-1 7 1.813-2c2.187-2 2.187-2 5.187-2l-1 7 2-1 2-1v2l2 1c-1.637 1.801-2.904 2.955-5.125 4-2.228.912-2.228.912-2.875 4h-2v3l2 1-4 2 3 5c-2.366 2.615-4.942 4.264-8 6l.563 1.813C99 221 99 221 98 224c1.786 3.683 1.786 3.683 5 6 1.015-4.102 1.015-4.102 0-8h5l-1-4c4.308-3.938 4.308-3.938 7.813-4.25L117 214v-3l10-1v3h6l-1 3h-3c1.034 1.26 1.034 1.26 3.285 1.098l2.778-.036 2.785-.027L140 217v2l-2 2 2.375-.563C143 220 143 220 145 221v3l-7 2v2l-2.438.438c-2.483.303-2.483.303-3.562 1.562-1.52.072-3.042.084-4.563.063l-2.503-.028L123 230l-1 3-3.313.375c-3.76.38-3.76.38-6.687 2.625-3.188.125-3.188.125-6 0v2c-5.232 2.021-5.232 2.021-8.25 1.938-2.576-1.38-2.918-3.233-3.75-5.938l-3 1v4l-3 2c-1.16 2.444-2 4.283-2 7l-5 1v-3c-2.461 3.589-3.216 5.684-3 10-.588 3.821-1.728 7.354-3 11-2.763.597-5.16 1-8 1l1.063 2.875C69 274 69 274 68 276a299.491 299.491 0 0 1-2.5-3.313l-1.406-1.863C63 269 63 269 63 266h-3c.458 3.47.891 6.674 2 10h2l2 5-5-1c-1.044 3.133-.934 3.99 0 7h-2l-2 2-1.31-1.066c-9.818-8-9.818-8-19.69-15.934-10.121-8.08-20.198-16.212-30.015-24.661C3.17 244.913 3.17 244.913 0 243c-.578-3.963-.923-7.529 1.269-11.023 4.376-4.863 8.939-8.553 14.418-12.102 1.694-1.128 3.387-2.257 5.079-3.387l2.623-1.74c4.228-2.83 8.387-5.757 12.549-8.685l5.027-3.528 2.519-1.769C47.653 197.84 51.827 194.92 56 192c5.048-3.533 10.096-7.067 15.14-10.605A3295.986 3295.986 0 0 1 102 160Zm-5 11 1 2 1-2h-2Z" fill="#4F9D73"/><path d="M283 35v3c-3 2-3 2-6 2l-1 4 2 1c-2 3-2 3-5.375 3.688C269 49 269 49 265 49l1 3-1 2h2v8l2-1-1-2h2l1-2c2.375.688 2.375.688 5 2 1.313 2.625 1.313 2.625 2 5l-1 1 5 2 1-4 1 2 2 1-1 5h-2l4 4 1-3h2v2l10 1c-3 3-3 3-6 5l6-2c-.875 7.75-.875 7.75-2 10 4.067-1.356 7.087-3.397 10.45-5.977C310 81 310 81 312 81l1-3c2.563-1.188 2.563-1.188 5-2 2.275 2.167 4.158 4.456 6 7h-4v2c4.542-1.909 4.542-1.909 9-4l3 6 3-1 1-2 3 3-2 1 2.375.25C342 89 342 89 343.313 91.063L344 93l-3 1c-1.448 1.448-1.557 3.04-2 5l3-1v-3l3 1v-2c2 1 2 1 5 3l-5 3 2.75-.5C351 99 351 99 355 99l1 5 1-1 .438 1.938c.372 2.037.372 2.037 1.562 3.062v-6h2v2l3-2-1-3h2v2h3v-5l2.375.5c2.507.562 2.507.562 4.625.5l.75-1.938C377 93 377 93 379.125 92.25L381 92l-1 3 1 3 3 1-.563 2.375c-.697 2.596-.697 2.596.563 4.625l3 1v-2l4 2-1 3c-3.49 1.477-7.274 1.072-11 1l-1 2-8-1 3 3-2 1v2h-3v4l2 1c-3.053.294-5.957.445-9 0-2.563-2.5-2.563-2.5-4-5l-5 1v-3l-2 2c-2.625.125-2.625.125-5 0-1.498 3.371-2 5.204-2 9h-2l-1 2h-2l-1 2c-3.45 1.15-6.353 2-10 2l-1-1-1 4-5-1v-2c-1.975.348-1.975.348-4 1l-1 2-2 1-1 2c-2-1.313-2-1.313-4-3v-3l-1 3-3-1v-3l-1.875.625L300 133l-2-2 1-1-3-1-4 5-1-4h2l1-5-3 3v-2l-4 2-1-1-2 1-.438-2.938c-.238-2.927-.238-2.927-1.562-4.062l-1 4-.75-2.375c-1.404-2.948-2.257-3.527-5.25-4.625l-2 3c-3-2-3-2-4-5-2-1.209-2-1.209-4-2 2.625-5.75 2.625-5.75 6-8-2.093-.225-2.093-.225-3.5 1.375L266 109l-2 2-1-1v3l-3-1c-1-3-1-3 0-6l-2.875-1.25c-3.132-1.754-3.99-2.459-5.125-5.75l1 5-8 2v-2h-2l-.875-2.938c-.767-3.169-.767-3.169-3.125-4.062l-1 2-1-3h-2l-1-2c-2.376.462-4.727.925-7.063 1.563-2.921.66-5.231.79-7.937-.563l1-3-2.313-.375C215 91 215 91 212 89l3-1c3.096-3.194 3.096-3.194 4.207-7.352 1.184-3.955 4.088-5.544 7.356-7.773l2.046-1.447A658.102 658.102 0 0 1 235 67c1.249-.866 2.498-1.731 3.746-2.598 2.567-1.774 5.141-3.538 7.719-5.297 5.555-3.794 11.075-7.638 16.597-11.48l2.958-2.055c.933-.65 1.866-1.3 2.828-1.968l2.684-1.867a384.192 384.192 0 0 0 6.527-4.712C281 35 281 35 283 35Zm-33 60c-3.058 1.788-3.058 1.788-6 4v3l1.25-1.375c1.814-1.685 3.503-2.618 5.75-3.625l-1-2Z" fill="#157A4A"/><path d="M392 111c1.625 1.375 1.625 1.375 3 3 3.737 2.491 5.745 2.207 10.188 2.125l3.855-.055L412 116l-4 2v2c-4.655.92-9.147 1.122-13.875 1.063l-2.086-.014c-1.68-.012-3.36-.03-5.039-.049l-2-4c-1.46 2.647-2 3.894-2 7l-2 1 6 1v1h7l-2 6h-4c-1.011 3.05-1.011 3.05 0 6 2.017 1.134 2.017 1.134 4 2l-1 3h2l2-3 2 4h-2l-1 3-3-1c.833 2.167.833 2.167 3 3l-3 6 2-1 3 2h3l.25-1.813c.99-2.888 2.1-3.714 4.75-5.187 3.393-.609 4.735-.15 7.75 1.563 2.853 3.09 3.012 5.309 3.25 9.437l8-3v-2l-3.25-1.813c-2.74-1.561-5.283-3.213-7.75-5.187.318-2.946.559-4.559 2.688-6.688 2.685-1.524 5.356-2.439 8.312-3.312l1 2 1-1c-.41-2.054-.41-2.054-1-4 1.625-1.563 1.625-1.563 4-3 3.25.313 3.25.313 6 1l1 3 2.25.188c3.579 1.057 4.505 2.916 6.75 5.812 2.13.87 2.13.87 4 1v3l2-3h3l-1 4 2 1c-3 1-3 1-5 1 .947 2.158.947 2.158 3 4h2l1-2h3l-1 4 2.313-.563C462 155 462 155 465 156l-1-4 3 1-1 4-6 1v3c2.437-.27 2.437-.27 5-1l2-3 2 1c-1.688 2.5-1.688 2.5-4 5-2.75.313-2.75.313-5 0l-1-3-7 2-2-2v-2l-9 3v-3h2l-1-5-1 2h-2l1 3-3 2c-.733 3.066-.733 3.066-1 6-2.313.188-2.313.188-5 0-1.688-1.5-1.688-1.5-3-3h-2l-1 5-3-3h2l-2-3h-8v2l4 1c-2.363 2.526-3.665 3.888-7 5v5c2.224-1.925 2.224-1.925 3-5h4c.125 6.75.125 6.75-1 9h3l1-1c1.849-.234 3.705-.413 5.563-.563l3.066-.253L432 177l-2-5 7 4 1-3c.651-1.34 1.315-2.676 2-4h4v-3l6 1-1-4 3 2c-1.141 3.423-2 4.148-5 6h-3l-1 3a90.576 90.576 0 0 1-4 4l-2 2-3-1 1 4-2 1 1 2c-3.875-.875-3.875-.875-5-2h-4v2c-4.75-1.875-4.75-1.875-7-3l1.563 1.75C421 187 421 187 420.688 189.25L420 191l-7-2v7l-5 1-1 3-3-1c-.68 2.397-.68 2.397-1 5l2 2c.125 3.625.125 3.625 0 7l3 1v3l4-1 2 3-4 2v-2l-2.313.125C405 219 405 219 402 217l-1-3-2 1-3-6-2 1-2-1-1 3-3-1c1-3 1-3 3-5l-1-2c.438-2.125.438-2.125 1-4l-2-1v-2l-2-1 1.813-.438c1.749-.45 3.474-.99 5.187-1.562l-1.5-1.375C391 191 391 191 391 189l-2.25.625c-3.168.432-4.004-.208-6.75-1.625-1.338.315-2.672.646-4 1l-2-2-1.063 3.313c-1.415 3.346-1.789 3.616-5.312 5.312L366 197c-2.73 2.48-2.73 2.48-5 5-3 2-3 2-5.188 1.625L354 203l-.586-6.055c-.278-2.172-.278-2.172-2.414-3.945-2.108.319-2.108.319-4 1v3h-2c.313-2.375.313-2.375 1-5 3.644-2.43 5.712-2.162 10-2l.313-2.875C357 184 357 184 360 182a97.813 97.813 0 0 1 7 0l1-5 8-1-1 6 5-2v-8h-7l1-2-1.688.688c-3.297.445-4.715-.723-7.312-2.688l-1-3-4 2-2-2-2 1v-3l-5 2c-.553-2.076-1-3.844-1-6l-1.871.21c-7.504.48-11.369-1.593-17.129-6.21l-1.86-1.266c-3.006-2.147-4.108-3.638-5.265-7.172.157-4.482 1.203-6.19 4.125-9.562 5.158-4 5.158-4 9-4l1-3a124.97 124.97 0 0 1 5-2l1-2-2-1 3-6 2.313.125c2.914.096 2.914.096 5.687-2.125l-1 4 6-2 2 3c3.036 1.923 4.219 2 8 2v-4l3 1 1 5h5l-1-5h2v-4h2l1-3c7.442-1.385 7.442-1.385 11-1Z" fill="#187C4C"/><path d="m417 182 2.188.938c2.727 1.158 2.727 1.158 5.437 1.375 2.375.687 2.375.687 4.188 3.125C430 190 430 190 430 192c3.095.995 4.898.856 8 0l1 1 2-1v2l2 1v5l5-2v2h-2l-1 2h-2c1.312 1.562 1.312 1.562 3 3h3v3l3-1 2 1 1-5h2c.125 5.75.125 5.75-1 8l6 1v2l1.688-1.875c2.378-2.186 4.276-3.113 7.312-4.125v-2l-3-2c4.21-.957 6.257-1.132 10 1-8.751 6.893-17.502 13.76-26.61 20.178-4.906 3.461-9.746 7.007-14.577 10.572l-2.414 1.766a425.008 425.008 0 0 0-12.485 9.492l-2.527 1.962a237.537 237.537 0 0 0-4.718 3.763c-5.564 4.283-9.713 5.067-16.669 4.267v-4l-2-1-1 2-3-1c0-2 0-2 1.5-3.625L395 248c-1 1-1 1-3 2v-2l-3-1 .688-2.313L390 242c-1.334-1.835-1.334-1.835-3-3l-2 2 1.563 1.25L388 244c-.313 2.188-.313 2.188-1 4l-1-3h-3c-1.75-1.688-1.75-1.688-3-4 .313-2.75.313-2.75 1-5l2 1 1-2-2-1 4-2-7 1v-3h-4l-1-5 2.438-1.75c2.54-2.231 3.213-2.995 3.562-6.25l-2.313 2C375 221 375 221 372 221l-3 2-3-1c-1-3-1-3-1-5l-1.813.688C361 218 361 218 359.25 216.75 358 215 358 215 358 212c2.5-1.688 2.5-1.688 5-3l-3-1v-3h3v-4c.5-2.625.5-2.625 2-5 2.67-1.063 5.143-1.493 8-2l2-8 3 1v2l3-2c2 .375 2 .375 4 1h3l3 1v2l3 1 1 3-2.438.438c-2.483.303-2.483.303-3.562 1.562v2l4 2h-2l.75 2.75c.25 3.25.25 3.25-1.688 5.625L388 211h3l1-2a78.037 78.037 0 0 1 5-2l.25 2.375c.478 2.772.478 2.772 2.813 3.938L402 214v3l9 3 2-2h-3l-3-1-1-3-2-1v-8h-2l2-6h3l1-2c2.063-.625 2.063-.625 4-1l1-7c4.75.875 4.75.875 7 2-.557-3.344-1.352-6.033-3-9Zm11 4 2 1Z" fill="#238252"/><path d="M68 215c2.356 1.549 4.164 2.92 6.188 4.813l3.042 2.707L80 225l2.3 1.633C84 228 84 228 85 231.063c.68 3.054.68 3.054 3.063 4.125L90 236l1 3-3 2c-1.16 2.444-2 4.283-2 7l-5 1v-3c-2.461 3.589-3.216 5.684-3 10-.588 3.821-1.728 7.354-3 11-2.763.597-5.16 1-8 1l1.063 2.875C69 274 69 274 68 276a299.491 299.491 0 0 1-2.5-3.313l-1.406-1.863C63 269 63 269 63 266h-3c.458 3.47.891 6.674 2 10h2l2 5-5-1c-1.044 3.133-.934 3.99 0 7h-2l-2 2-1.31-1.066c-9.818-8-9.818-8-19.69-15.934-21.012-16.774-21.012-16.774-29-24 .656-3.681 1.623-7.102 2.875-10.625l.992-2.852C11.991 232.021 13 230.813 15 229l2-3v3l2 1 1-4 4-1-1-2-2 1v-3h3l1-3c3 0 3 0 4.688 1.5L31 221l-1 3-3 1v3l-.938 2.75c-1.118 3.42-1.634 6.684-2.062 10.25h4l1 3 1-2c2.063-.625 2.063-.625 4-1l-2-2c.346-3.543 1.057-4.048 3.922-6.48a259.904 259.904 0 0 1 3.828-2.708l2.035-1.44c1.389-.981 2.78-1.958 4.174-2.93a235.703 235.703 0 0 0 5.682-4.16 4928.1 4928.1 0 0 1 3.359-2.47l3-2.23c3.74-1.973 5.822-2.223 10-1.582Zm-42 29-1 5h3v-5h-2Z" fill="#5BA67D"/><path d="M238 311c3.81.218 4.994.994 7.813 3.688 2.823 2.56 2.823 2.56 5.347 2.195 2.479-.601 2.479-.601 5.84-1.883l1 4h-3l2 4c-6.75 1.125-6.75 1.125-9 0v2h2l-1 3-1.938.438c-2.215.359-2.215.359-3.25 2.375-1.43 3.852-2.1 6.18-.812 10.187-2.463 1.231-4.28 1.072-7 1l-1 4h-3l-1 2c-1.645.72-3.32 1.37-5 2-1.608.7-3.212 1.41-4.813 2.125l-2.394 1.07L217 354l1 2c-1.395.626-2.791 1.25-4.188 1.875l-2.488 1.121C209 360 209 360 206.125 360.938c-2.848 1.424-3.727 3.265-5.125 6.062l2 2c-.375 2.125-.375 2.125-1 4h6c-.604 3.02-1.495 4.634-3.996 6.445C199.99 381.752 197.734 383 193 383l-1 5h-4l-3 2 2 3c-2.993-1.378-5.395-2.987-7.934-5.082l-2.216-1.826-2.287-1.904-2.276-1.87c-3.96-3.277-7.73-6.606-11.287-10.318l6 1 2-5 4 3 .55-2.809.762-3.628.739-3.622L176 358l3-1-1.125-2.25c-.875-2.75-.875-2.75-.438-4.875 2.324-2.789 5.233-3.567 8.563-4.875l2-2c2.625-.625 2.625-.625 5-1l-1-4c-3.003 1.467-5.884 2.925-8.688 4.75L181 344l-3-1 2-1v-3l-3-2 1-7h2c-.977-2.707-1.82-4.786-3.688-7-1.312-2-1.312-2-1.062-4.625C176 316 176 316 177 314l2 1-1 6 1.563-1.563c3.46-2.04 5.61-1.341 9.437-.437l3 2v2l2.266-.691 2.984-.872 2.953-.878c2.76-.551 4.188-.497 6.797.441h-2v2h-4v2l3-1v3h3l2 2 3-2h2v3h3l-1-3c3.61-3.291 6.126-4.547 11-5v-3l-3-2c2-3 2-3 4.566-3.695l2.996-.43c3.53-.257 3.53-.257 6.438-1.875Zm19 9 2 1-2 1v-2Z" fill="#5AA77C"/><path d="M441 152c2 2 2 2 2 6h-2l1 2 9-3 1 4 7-1 1 2c3.629.151 3.629.151 7-1 2.125.938 2.125.938 4 2l-1 3-3-2v2l1 1a113.094 113.094 0 0 1 1.5 3.938c.759 2.09 1.505 4.071 2.5 6.062l2.313-1.063C477 175 477 175 480 176l-.5 1.875c-.576 2.086-.576 2.086-.5 4.125l3 2 1-5-2-1 6-2 4 5-5 1c-1.392 4.176.177 6.135 2 10h6v-2l5-1c-3.455 3.664-7.253 6.71-11.25 9.75l-1.91 1.535C481.033 203.917 478 204.56 472 204l-.125 2.25c-1.237 3.887-3.395 4.801-6.875 6.75l-3 1v-2l-6-1 1-8h-2l-1 5c-4.75.125-4.75.125-7-1l-2 2-3-8 6-1h-5c-2-3.75-2-3.75-2-6l-1-1-1 2-2-1h-3c-2-.125-2-.125-4-1-3-5.036-3-5.036-3-8l-2-1h4v-2c2 1 2 1 3 2l2-2v-3l1.824-.293c2.64-.858 3.351-1.816 4.988-4.02 2.992-3.718 5.94-5.563 10.188-7.687l-1-2v2l-6-1 1 4h-5l-.938 1.875L437 176l-5-2v3c-3.724.693-7.21 1.111-11 1l1 3h-2v-2h-3c-.125-6.75-.125-6.75 1-9h-4l-1 5h-3c-.2-3.716-.152-4.772 2-8l3-2-1-3c3.663-.75 6.424-1.238 10 0l-1 4h2l.375-1.938L426 162l2-1 1.813 2c2.062 2.337 2.062 2.337 5.187 2l.313-2.875C436 159 436 159 439 157c1.205-2.552 1.205-2.552 2-5Z" fill="#0A7444"/><path d="m417 182 2.188.938c2.727 1.158 2.727 1.158 5.437 1.375 2.375.687 2.375.687 4.188 3.125C430 190 430 190 430 192c3.095.995 4.898.856 8 0l1 1 2-1v2l2 1v5l5-2v2h-2l-1 2h-2c1.312 1.562 1.312 1.562 3 3h3v3l3-1 2 1 1-5h2c.125 5.75.125 5.75-1 8l6 1v2l1.688-1.875c2.378-2.186 4.276-3.113 7.312-4.125v-2l-3-2c4.21-.957 6.257-1.132 10 1-29.42 23.172-29.42 23.172-39.887 27.969-2 .976-3.649 2.075-5.425 3.406C430 238 430 238 427.125 237.75L425 237l-1 2-5-1-1-3-1.875.625L414 236l-2-2 2.438-1.313c2.84-1.492 2.84-1.492 3.562-4.687l-3-1c-1.96-1.583-2.885-2.71-3.813-5.063L411 220l2-2h-3l-3-1-1-3-2-1v-8h-2l2-6h3l1-2c2.063-.625 2.063-.625 4-1l1-7c4.75.875 4.75.875 7 2-.557-3.344-1.352-6.033-3-9Zm11 4 2 1Z" fill="#187C4C"/><path d="m188 251 1 3c2.015.733 2.015.733 4 1l-7 1-1-2-2 2 2 1-2 7h7c-1.375 1.5-1.375 1.5-3 3h-2c3.133 1.044 3.99.934 7 0l1 5h-3l-1 2v-2c-2.343.256-4.678.593-7 1l-1 2 3 1-3 2 1 2c-2.062.338-4.124.67-6.188 1l-3.48.563c-2.836.372-5.48.523-8.332.437l-1 2c2.083-.145 4.167-.29 6.25-.438l3.844-.265c4.536-.345 9.056-.807 13.578-1.309C189 282 189 282 191 284l-2.438.375L186 285l-1 2 10-1 2 5c3.545-1.398 3.545-1.398 7-3l1.238 1.512c1.63 1.685 1.63 1.685 3.742 1.57l2.208-.27c5.082-.224 7.585 1.68 11.378 4.875L224 297c-.31 2.875-.612 4.566-2.563 6.75-3.465 1.777-6.562 1.927-10.437 2.25l.563 1.938L212 310c-1 1-1 1-4.063 1.063L205 311l-.813 2.875C203 317 203 317 200 319c-3.243.603-5.253.402-8.168-1.168-4.136-2.848-4.136-2.848-5.832-4.832-.524-3.752-.156-4.767 2-8h-4l-.813-1.938c-1.074-2.393-1.074-2.393-4.187-3.062l4-1-6-2 1-2c2.582-.45 2.582-.45 5.813-.688l3.207-.261c2.606-.045 4.52.157 6.98.949v-3l-3.184.219c-3.61.243-7.223.46-10.837.665-1.636.096-3.27.207-4.905.323-3.758.17-5.613.152-8.637-2.207L165 289l-1 2c-3-1-3-1-5-4-.625-2.188-.625-2.188-1-4l-5 1v-2l7-3-1-3 1-2h-5l3-1v-2l2.773.035c1.189.01 2.377.018 3.602.027l3.586.036c2.958.117 2.958.117 5.039-1.098h-13l1-2h4v-2l-3-1c1.25-1.563 1.25-1.563 3-3 2.188.313 2.188.313 4 1l.875-2.375C171 258 171 258 173 256l1-3 4 3v-4l4 1v-1c1.207.03 1.207.03 2.438.063 2.496.233 2.496.233 3.562-1.063Z" fill="#57A278"/><path d="M287.188 345.375 289 346a1363.7 1363.7 0 0 1-27.485 20.273 431.777 431.777 0 0 0-13.327 9.977C230.47 390 230.47 390 227 390v2c-2.983 1.524-5.818 2.94-9 4v2c-6.097 3.613-10.902 5.212-18 4-7.512-2.404-11.93-6.332-16-13l2.938-1.438c2.867-1.264 2.867-1.264 4.062-2.562 2.256-2.256 3.971-2.885 6.938-4 3.036-1.145 5.339-2.185 8.062-4l1-3h-5c-.563-1.938-.563-1.938-1-4l1-1-2-2c2.298-4.496 3.88-6.287 8.75-7.875 1.41-.396 2.826-.778 4.25-1.125l2 2-5 5 2 1 1 3h2l1-2h2l1-1-2-1c.75-4.75.75-4.75 3-7v2l1.813-1.5C224 357 224 357 227 357l2 2c-.375 2.125-.375 2.125-1 4l-2-1c-1.224 2.075-1.224 2.075-1 5 3.072 1.401 3.072 1.401 6.188-.438L234 365l-2 8h-2l-.313 1.938L229 377l-3 1-1 3 2 1v-2h3l1-3c2-.75 2-.75 4-1l1 1 1-3h2l1 1 2.063-2.563C245 370 245 370 248.813 370.188L252 371l.625-1.75c1.86-3.043 4.42-4.323 7.375-6.25v-2l-2-2 1-2 7 1v-3l2.813.25L272 355c1.512-1.793 1.512-1.793 3-4 2.256-1.504 4.604-2.716 7-4 3-2 3-2 5.188-1.625Z" fill="#59A57B"/><path d="M1 242a382.203 382.203 0 0 1 11.625 10.25c4.301 3.89 8.798 7.454 13.419 10.95 4.75 3.606 9.315 7.409 13.878 11.25 3.211 2.66 6.475 5.238 9.766 7.8 7.583 5.91 14.987 12.032 22.392 18.162 6.638 5.49 13.322 10.92 20.057 16.291 3.634 2.916 7.249 5.856 10.863 8.797a1683.67 1683.67 0 0 0 13 10.5c5.067 4.04 10.09 8.133 15.117 12.223 3.616 2.94 7.239 5.871 10.883 8.777 4.228 3.372 8.429 6.776 12.625 10.188l2.066 1.679c3.47 2.821 6.938 5.645 10.403 8.473 3.314 2.703 6.635 5.398 9.961 8.086 1.3 1.052 2.598 2.107 3.894 3.164 1.865 1.52 3.738 3.028 5.613 4.535l1.66 1.362c6.131 4.886 11.624 7.032 19.477 6.818 2.97-.394 4.899-1.558 7.301-3.305h3v-2c5.294-4 5.294-4 9-4v-2c1.67-1.295 1.67-1.295 3.969-2.746 4.613-2.976 9.085-6.097 13.531-9.317l2.337-1.688c6.085-4.419 12.062-8.967 18.017-13.56 7.541-5.798 15.23-11.411 23.146-16.689-4.401.503-6.712 2.088-10 5l-2-1 1-8-6 1 .625-3.188c.377-3.828.45-5.605-1.625-8.812-2.548-.894-2.548-.894-5-1 1-2 1-2 2-3h-3v-2l-2-1 3-1v3c3.167-1.833 3.167-1.833 5-5h2l1-3c2.063-.688 2.063-.688 4-1l-2-2 2-2v-4h3l.313 1.875c.562 2.49.562 2.49 3.687 4.125h-2v4l3 2h-8l.625 2.375L278 326l-2 2-4-2 2 5h3l-1 4 3-1-1 4 9 1v2h-2v3h2v-2l6-2v-2l4-2c-2.156 0-3.924.447-6 1v-4l2.938-1.438c2.867-1.264 2.867-1.264 4.062-2.562l-4-1v-3c3.757-.966 6.242-.77 10 0 2.232-.369 2.232-.369 4-1l1 2h2l1-2h2c-2.844 7.658-6.258 11.27-12.875 15.813-1.63 1.145-3.257 2.294-4.883 3.445l-2.59 1.833c-4.541 3.27-8.967 6.686-13.402 10.096-6.334 4.86-12.703 9.636-19.227 14.237-4.294 3.034-8.511 6.161-12.71 9.326a2350.239 2350.239 0 0 1-18.438 13.75l-2.405 1.78c-13.363 9.852-13.363 9.852-22.22 10.033l-3.61.113c-7.5-.877-12.84-5.993-18.452-10.676l-4.27-3.516-2.057-1.7A496.652 496.652 0 0 0 170 383a1246.054 1246.054 0 0 1-10.68-8.625c-5.712-4.657-11.444-9.281-17.257-13.813-6.003-4.68-11.876-9.507-17.738-14.364a581.627 581.627 0 0 0-13.575-10.885c-5.067-3.942-9.988-8.022-14.865-12.195-4.365-3.719-8.847-7.263-13.373-10.782-5.481-4.276-10.833-8.702-16.186-13.137a582.286 582.286 0 0 0-13.576-10.887c-5.064-3.938-9.984-8.015-14.856-12.188-3.887-3.313-7.862-6.49-11.894-9.624a456.925 456.925 0 0 1-14.063-11.375l-1.587-1.334C7.072 251.005 3.878 248.201 1 245v-3Zm272 91 1 3 1-3h-2Z" fill="#4D9C71"/><path d="M68 215c2.356 1.549 4.164 2.92 6.188 4.813l3.042 2.707L80 225l2.363 1.512C84 228 84 228 84.34 230.4c-.34 2.6-.34 2.6-1.925 4.25l-2.22 1.436-2.444 1.622-2.626 1.667c-1.753 1.145-3.506 2.29-5.258 3.438l-2.56 1.656a93.077 93.077 0 0 0-5.55 3.969l-2.507 1.937-2.047 1.648c-3.45 1.53-5.601.966-9.203-.023-2.488-1.569-4.596-3.443-6.75-5.438-4.446-4.002-4.446-4.002-9.25-7.562.699-4.062 2.436-5.409 5.762-7.807l1.988-1.38 2.035-1.441c1.389-.981 2.78-1.958 4.174-2.93a235.703 235.703 0 0 0 5.682-4.16 4928.1 4928.1 0 0 1 3.359-2.47l3-2.23c3.74-1.973 5.822-2.223 10-1.582Z" fill="#63DAF6"/><path d="m383 116 5 2-1 2h21v-2l3-1v2h2l-1 2-3 1 1 3 3-1-1-2 8-1-1 5c2.934-.267 2.934-.267 6-1l2-3 3 1-3 5h2l1 4h-2v2l-3 2c.506 2.169 1 4 2 6l-1.875-.5c-4.372-1.029-7.202.432-11.125 2.5-1.052 2.577-1.052 2.577-1 5 5.248 3.913 5.248 3.913 11 7-1 3-1 3-3.375 4.188C418 161 418 161 415 161l-.75-3.313c-.949-3.632-.949-3.632-3.063-5.625-2.686-1.305-4.232-1.505-7.187-1.062-3.089 1.802-3.848 2.544-5 6-2.063 1.188-2.063 1.188-4 2v-2l-3-1-2 1 1-1.813c1.452-3.177 1.096-4.9 0-8.187l5-3c-2.156 0-3.924.447-6 1l1-4-1.938-.813C387 139 387 139 386 136l2-3 2-.375 2-.625c1.146-2.5 1.146-2.5 2-5l-2.746.438c-6.835 1.041-13.342 1.8-20.254 1.562v-1l6.055-.488c2.34-.386 2.34-.386 3.945-3.512h2v-2l-2-1h2v-5Z" fill="#0A7444"/><path d="M59 191v2l-2 1c-.656 2.527-.656 2.527-1 5l-1-2-3 1c-.733 2.015-.733 2.015-1 4l2 1 1-2c1 3 1 3 .063 5.188L53 208h-3l1 2-4-1c-1.053 2.631-1.053 2.631-1 4l-4 2v2l6-1 1 5c.75-3.471.75-3.471 1-7l2-1 1-2c3 0 3 0 5 1l-3 6 2 1-3.219 2.195A2401.984 2401.984 0 0 0 41 230l-2.844 1.96c-1.777 1.27-3.479 2.642-5.156 4.04v3l2 2-5 1-1 4-1.313-1.938c-1.6-2.33-1.6-2.33-4.687-3.062.37-5.746 1.24-9.856 4-15l-1-2 4-2-4-3-2 2h-3l3 2v2l-3 2a93.365 93.365 0 0 0-1 4l-2 1-1-3-1 2h-2l-.75 2c-1.569 3.765-3.401 7.367-5.25 11-.668 1.333-1.335 2.666-2 4-5.557-3.59-5.557-3.59-6.645-7.055-.256-3.443.033-6.011 1.95-8.937 4.351-4.9 8.895-8.578 14.383-12.133 1.681-1.12 3.362-2.241 5.042-3.363l2.62-1.737c4.428-2.965 8.788-6.025 13.15-9.088l2.54-1.776a574.01 574.01 0 0 0 16.062-11.653C57 191 57 191 59 191Zm-33 53 2 1v5l-3-1 1-5Z" fill="#56A178"/><path d="M392 111c1.625 1.375 1.625 1.375 3 3 3.737 2.491 5.745 2.207 10.188 2.125l3.855-.055L412 116l-4 2v2c-4.655.92-9.147 1.122-13.875 1.063l-2.086-.014c-1.68-.012-3.36-.03-5.039-.049l-2-4c-1.46 2.647-2 3.894-2 7l-2 1 6 1v1h7l-2 6h-4c-1.011 3.05-1.011 3.05 0 6 2.017 1.134 2.017 1.134 4 2l-1 3h2l2-3 2 4h-2l-1 3-3-1v4l-3 1v-6l-1 4h-2l-2-3-3 1-1-4h2c-1.833-2.219-2.565-2.957-5.5-3.25L373 140c-1.688-3.5-1.688-3.5-3-7l-2-1 .5 2.313c.745 4.001.82 5.208-1.5 8.687h-3l-1-5-2.875-.375C357 137 357 137 355 135a252.441 252.441 0 0 0-7-3l-2-1c-1.537-.225-3.08-.408-4.625-.563l-2.477-.253L337 130c1.39-2.78 3.187-2.875 6-4l1-2-2-1 3-6 2.313.125c2.914.096 2.914.096 5.687-2.125l-1 4 6-2 2 3c3.036 1.923 4.219 2 8 2v-4l3 1 1 5h5l-1-5h2v-4h2l1-3c7.442-1.385 7.442-1.385 11-1Z" fill="#127949"/><path d="M544 152h1c0 3.67-.03 5.939-2.56 8.707a217.515 217.515 0 0 1-14.628 11.23c-6.957 4.955-13.787 10.05-20.562 15.25-6.335 4.858-12.703 9.636-19.227 14.237-4.294 3.034-8.511 6.161-12.71 9.326-8.251 6.218-16.566 12.348-24.89 18.468-3.976 2.924-7.95 5.853-11.923 8.782l-4.75 3.5-2.375 1.75-9.5 7a12748.827 12748.827 0 0 1-16.73 12.32c-7.405 5.446-14.8 10.905-22.145 16.43-9.757 7.339-19.6 14.56-29.437 21.791-2.417 1.777-4.834 3.555-7.25 5.334l-2.378 1.75a1807.001 1807.001 0 0 0-15.498 11.563c-5.726 4.314-11.514 8.519-17.437 12.562 0-3.881.895-5.74 3-9 1.588-.728 3.187-1.442 4.832-2.031 5.56-2.485 11.403-6.553 15-11.477 2.473-2.842 4.604-3.818 7.964-5.37 4.082-2.078 7.626-4.927 11.267-7.685l5.066-3.785 2.508-1.883c3.27-2.448 6.565-4.86 9.863-7.269 8.033-5.884 16.046-11.793 24.06-17.702L406.5 257l4.75-3.5 49.876-36.75 4.742-3.496c3.995-2.943 7.99-5.885 11.987-8.824a2739.064 2739.064 0 0 0 24.078-17.885 1911.974 1911.974 0 0 1 15.817-11.732 37993.848 37993.848 0 0 0 11.193-8.242c1.667-1.229 3.331-2.462 4.995-3.696l2.714-2.008c4.682-3.694 4.682-3.694 7.348-8.867Z" fill="#828085"/><path d="m203 288 3 2c2.982 1.22 2.982 1.22 6.188.688 5.236.429 7.946 2.938 11.812 6.312-.31 2.875-.612 4.566-2.563 6.75-3.465 1.777-6.562 1.927-10.437 2.25l.563 1.938L212 310c-1 1-1 1-4.063 1.063L205 311l-.813 2.875C203 317 203 317 200 319c-3.243.603-5.253.402-8.168-1.168-4.136-2.848-4.136-2.848-5.832-4.832-.524-3.752-.156-4.767 2-8h-4l-.813-1.938c-1.074-2.393-1.074-2.393-4.187-3.062l4-1-6-2 1-2c2.582-.45 2.582-.45 5.813-.688l3.207-.261c2.606-.045 4.52.157 6.98.949l1-5h3c2.77-.471 2.77-.471 5-2Z" fill="#58A379"/><path d="M85.25 233c2.73.992 4.065 1.66 5.75 4v2l-3 2c-1.16 2.444-2 4.283-2 7l-5 1v-3c-2.461 3.589-3.216 5.684-3 10-.588 3.821-1.728 7.354-3 11-2.763.597-5.16 1-8 1l1.063 2.875C69 274 69 274 68 276a299.491 299.491 0 0 1-2.5-3.313l-1.406-1.863C63 269 63 269 63 266h-3l-1 2-5-6 4 8-4 3c-3.72-5.919-5.262-9.928-5-17v-3l3.434-.605c5.395-1.353 9.265-4.373 13.629-7.708l4.597-3.425c2.12-1.59 4.238-3.184 6.342-4.795C81.641 233 81.641 233 85.25 233Z" fill="#5CA77E"/><path d="m226 296 2 1-2 3 1 3h4l2-4 2 2h-2l2 3 3.313-.5C242 303 242 303 245 303l-1 3 1 1-2 5-2.125-.125c-2.938-.007-2.938-.007-5.813 1.125-3.205 1.047-5.714 1.16-9.062 1l-1 3 3 2-1 3a110.361 110.361 0 0 1-7 3c-1.34.653-2.677 1.312-4 2l2 4-5-1 1-3-5 4-4-4-2 1v-3h-2v-2h4l-1-2-6 1-6 1 1-2h2l1-2 3.438-1.25c3.813-1.404 3.813-1.404 5-4.938L205 310h6l-.563-1.938L210 306c2.047-2.047 5.882-1.928 8.652-2.402 2.52-.429 2.52-.429 4.348-2.598l.5-2.063.5-1.937 2-1Z" fill="#56A178"/><path d="M301 55v2l3 1-.188 3.313c-.168 3.608-.168 3.608 1.688 5.624L307 68l4-3 2 4v-2l1-2h4l1 3 2 1-1 3-3 1-1 5-3 1-2.313 2.313C307.95 84.05 305.354 86.073 302 88h-4v-8l-4 1v-3l5-2-3.375-.438C292 75 292 75 290 74v-2h-2l-1 4-4-3 1.063-3.188c.887-3.607.99-5.338-.063-8.812l3-2 2 1 .75-2.375C291 55 291 55 292.75 53.562c3.197-.799 5.262.216 8.25 1.438Z" fill="#0A7544"/><path d="m177 314 2 1-1 6 1.563-1.563c3.46-2.04 5.61-1.341 9.437-.437l3 2v2l2.266-.691 2.984-.872 2.953-.878c2.76-.551 4.188-.497 6.797.441h-2v2h-4v2l3-1v3h3c2.01 2.01 2.9 3.592 4.125 6.125l1.07 2.195L213 337l-7-2v2l-2.188.813c-2.853 1.12-2.853 1.12-5.437 2.812C196 342 196 342 193 342l-1-4c-3.003 1.467-5.884 2.925-8.688 4.75L181 344l-3-1 2-1v-3l-3-2 1-7h2c-.977-2.707-1.82-4.786-3.688-7-1.312-2-1.312-2-1.062-4.625C176 316 176 316 177 314Z" fill="#5BA77D"/><path d="M1 242a382.203 382.203 0 0 1 11.625 10.25c4.301 3.89 8.798 7.454 13.419 10.95 4.75 3.606 9.315 7.409 13.878 11.25 3.211 2.66 6.475 5.238 9.766 7.8 7.583 5.91 14.987 12.032 22.392 18.162 6.638 5.49 13.322 10.92 20.057 16.291 3.634 2.916 7.249 5.856 10.863 8.797a1683.67 1683.67 0 0 0 13 10.5c5.067 4.04 10.09 8.133 15.117 12.223 3.616 2.94 7.239 5.871 10.883 8.777 4.228 3.372 8.429 6.776 12.625 10.188l2.066 1.679c3.47 2.821 6.938 5.645 10.403 8.473 3.314 2.703 6.635 5.398 9.961 8.086 1.3 1.052 2.598 2.107 3.894 3.164 1.865 1.52 3.738 3.028 5.613 4.535l1.66 1.362c5.448 4.341 10.749 6.77 17.715 7.2l2.903.2L211 402c-3.148 2.098-4.117 2.319-7.75 2.375l-2.484.086c-6.923-1.154-12.346-6.345-17.578-10.711l-4.27-3.516-2.057-1.7A496.652 496.652 0 0 0 170 383a1246.054 1246.054 0 0 1-10.68-8.625c-5.712-4.657-11.444-9.281-17.257-13.813-6.003-4.68-11.876-9.507-17.738-14.364a581.627 581.627 0 0 0-13.575-10.885c-5.067-3.942-9.988-8.022-14.865-12.195-4.365-3.719-8.847-7.263-13.373-10.782-5.481-4.276-10.833-8.702-16.186-13.137a582.286 582.286 0 0 0-13.576-10.887c-5.064-3.938-9.984-8.015-14.856-12.188-3.887-3.313-7.862-6.49-11.894-9.624a456.925 456.925 0 0 1-14.063-11.375l-1.587-1.334C7.072 251.005 3.878 248.201 1 245v-3Z" fill="#383638"/><path d="M301 143c3.6.615 5.737 2.09 8.598 4.316l2.665 2.057 2.8 2.19c1.89 1.46 3.78 2.92 5.671 4.378l2.748 2.126c4.437 3.407 8.961 6.689 13.518 9.933-2.004 2.555-2.004 2.555-5 5-2.978.006-5.092-.23-7.938-.875l-2.328-.456c-2.587-.52-5.16-1.089-7.734-1.669l-2.941-.655c-3.966-.887-7.93-1.78-11.885-2.718l-2.701-.639-2.399-.577c-2.212-.508-2.212-.508-5.074-.411l1.757 1.313c2.644 1.978 5.287 3.958 7.93 5.937l2.764 2.066 2.686 2.012c.811.608 1.623 1.215 2.46 1.84L309 180l2.804 2.104L314 184v2c-3.295-.608-5.26-1.731-7.871-3.809l-2.223-1.751-2.344-1.877c-1.61-1.273-3.22-2.545-4.832-3.817l-2.412-1.914a830.72 830.72 0 0 0-9.943-7.707l-3.164-2.43L279 161c1-3 1-3 4-5 10.482.304 21.4 3.702 31.621 5.879 3.781.8 7.557 1.538 11.379 2.121a7676.13 7676.13 0 0 0-5.75-4.438l-1.757-1.357a444.377 444.377 0 0 0-9.028-6.803l-1.671-1.226a1196.714 1196.714 0 0 0-4.626-3.363L301 145v-2Z" fill="#F3F7F5"/><path d="m68 215 1 2-1.68.953-2.195 1.297-2.18 1.266C60.766 222.178 60.1 223.529 59 226c-1.938 1.813-1.938 1.813-4 3l-3-1c-2.284 1.056-2.284 1.056-4.563 2.688l-2.378 1.574c-2.18 1.84-3.17 3.04-4.059 5.738.795 3.702.795 3.702 2 7 7.092 1.19 12.427 1.471 18.621-2.813C66.897 238.42 66.897 238.42 70 233l6-2c1.818-1.608 2.91-2.821 4-5l4 2c.238 2.307.238 2.307 0 5-1.585 1.65-1.585 1.65-3.805 3.086l-2.444 1.622-2.626 1.667c-1.753 1.145-3.506 2.29-5.258 3.438l-2.56 1.656a93.077 93.077 0 0 0-5.55 3.969l-2.507 1.937-2.047 1.648c-3.45 1.53-5.601.966-9.203-.023-2.488-1.569-4.596-3.443-6.75-5.438-4.446-4.002-4.446-4.002-9.25-7.562.699-4.062 2.436-5.409 5.762-7.807l1.988-1.38 2.035-1.441c1.389-.981 2.78-1.958 4.174-2.93a235.703 235.703 0 0 0 5.682-4.16 4928.1 4928.1 0 0 1 3.359-2.47l3-2.23c3.572-1.884 6.018-1.886 10-1.582Z" fill="#3AD0F2"/><path d="M200 235h2l2 2c2.289.576 4.579.95 6.906 1.34C213 239 213 239 215 242l3 1-1 2c-2.063.625-2.063.625-4 1l-2-5c-.201 3.625.142 5.865 2 9l-1.938 1.25c-2.248 1.533-2.248 1.533-2.437 3.813L208 257c-3.063 1.25-3.063 1.25-6 2l1 6c-1.813.688-1.813.688-4 1-1.75-1.438-1.75-1.438-3-3l-1 4c-5.957 1.758-5.957 1.758-8 2l-3-2 5-2-6-1-1-3h2l1-4-3-1 4-3v3l3-2-6-2 1-2c1.625-.027 3.25-.046 4.875-.063l2.742-.035C194 250 194 250 196 251l2-6-2-1 2-1.688c2.255-2.153 2.255-2.153 2.25-5.062L200 235Z" fill="#509D73"/><path d="M441 152c2 2 2 2 2 6h-2l1 2 9-3 1 4 3 2c-1.75 5.75-1.75 5.75-4 8v-2l-2-1 2-1-1-2v2l-6-1 1 4h-5l-.938 1.875L437 176l-5-2v3c-3.724.693-7.21 1.111-11 1l1 3h-2v-2h-3c-.125-6.75-.125-6.75 1-9h-4l-1 5h-3c-.2-3.716-.152-4.772 2-8l3-2-1-3c3.663-.75 6.424-1.238 10 0l-1 4h2l.375-1.938L426 162l2-1 1.813 2c2.062 2.337 2.062 2.337 5.187 2l.313-2.875C436 159 436 159 439 157c1.205-2.552 1.205-2.552 2-5Z" fill="#0A7544"/><path d="M329.887 29.113c2.954 1.24 4.656 3.145 6.863 5.45l2.422 2.503L341 39l2-5c2.813-.313 2.813-.313 6 0 1.625 2.375 1.625 2.375 3 5 2.067 1.328 2.067 1.328 4 2l1-1a99.984 99.984 0 0 1 5 0c-3.636 3.856-7.417 6.867-11.813 9.813l-1.81 1.232A966.07 966.07 0 0 1 344 54l-2-1 2-2-2.531-.754c-3.893-1.398-7.355-3.194-10.969-5.184l-3.844-2.09-1.851-1.007C322.23 40.588 319.619 39.29 317 38c8.634-9.142 8.634-9.142 12.887-8.887Z" fill="#CC9A22"/><path d="M392 111c1.625 1.375 1.625 1.375 3 3 3.737 2.491 5.745 2.207 10.188 2.125l3.855-.055L412 116l-4 2v2c-4.655.92-9.147 1.122-13.875 1.063l-2.086-.014c-1.68-.012-3.36-.03-5.039-.049l-2-4c-1.46 2.647-2 3.894-2 7l-2 1 6 1v1h7v2c-6.588 4.392-14.774 3.231-22.375 2.688l-2.46-.176c-2.592-.613-3.338-1.646-5.165-3.512-1.975-.535-1.975-.535-4.063-.625C356 127 356 127 354 126c-2-.04-4-.043-6 0 .57-1.95.57-1.95 2-4 3.117-.645 3.117-.645 6.875-.813l3.742-.207c2.746.016 4.804.171 7.383 1.02v-4l3 1 1 5h5l-1-5h2v-4h2l1-3c7.442-1.385 7.442-1.385 11-1Z" fill="#338B61"/><path d="M392 92h6l1 4h5l1-2v3l3 1v2l2.25.75c2.998 1.363 4.63 2.751 6.75 5.25l1 3a125.01 125.01 0 0 1-3 4v3c-3.619 1.206-6.925 1.108-10.688 1.063l-2.126-.014c-1.729-.012-3.458-.03-5.186-.049l-2-7h2l-1-7h-2v-4l-2.313.688L389 100c-1.688-1.375-1.688-1.375-3-3l-2-1 3.438-.875L391 94l1-2Z" fill="#0E7545"/><path d="M287.188 345.375 289 346a1363.7 1363.7 0 0 1-27.485 20.273 431.777 431.777 0 0 0-13.327 9.977C230.47 390 230.47 390 227 390v2c-2.983 1.524-5.818 2.94-9 4l-1 2c-.375-2.25-.375-2.25 0-5 3.122-2.555 5.977-4.381 10-5v-8h3l1-3c2-.75 2-.75 4-1l1 1 1-3h2l1 1 2.063-2.563C245 370 245 370 248.813 370.188L252 371l.625-1.75c1.86-3.043 4.42-4.323 7.375-6.25v-2l-2-2 1-2 7 1v-3l2.813.25L272 355c1.512-1.793 1.512-1.793 3-4 2.256-1.504 4.604-2.716 7-4 3-2 3-2 5.188-1.625Z" fill="#5D9F7B"/><path d="M367 182c3.404 1.688 6.377 3.407 7.797 7.04.203 1.96.203 1.96-1.422 4.085C371 195 371 195 368.562 195.938c-3.308 1.371-5.113 3.485-7.562 6.062-3 2-3 2-5.188 1.625L354 203l-.586-6.055c-.278-2.172-.278-2.172-2.414-3.945-2.108.319-2.108.319-4 1v3h-2c.313-2.375.313-2.375 1-5 3.644-2.43 5.712-2.162 10-2l.313-2.875c1.3-5.911 5.411-5.74 10.687-5.125Z" fill="#DCE9E3"/><path d="m382 88 5 3-2 5 3 1 2 2 3 1 1-3c1.125 3.75 1.125 3.75 0 6h2c1.914 3.509 2.043 4.814 1.125 8.813L396 115a105.368 105.368 0 0 1-5.813-2.125c-3.508-.963-5.684-.71-9.187.125l-1 4h-2l-1 7c-2.995.872-5.636 1.108-8.75 1.063l-2.422-.028L364 125v-1h8c-.348-1.975-.348-1.975-1-4l-2-1h2l-2-8 9 2 1-3h11l-1-4-2-1v2c-3.146.262-4.618.248-7.313-1.5L378 104h5v-4l-2-1 3-5-2-1 1-2-1-1v-2Z" fill="#057140"/><path d="m330 136 .75 3.375c.858 3.63.858 3.63 3.188 5L336 145l3 1-1 2c4.848 3.699 8.747 5.807 14.95 5.422 3.237-.666 4.91-1.948 7.05-4.422.88-2.635.88-2.635 1-5h3c-.26 3.717-.736 5.663-3.063 8.625-5.742 4.643-10.888 7.207-18.417 6.895-4.627-.954-7.898-3.617-11.52-6.52l-1.86-1.266c-3.03-2.164-4.123-3.685-5.327-7.234.187-3.5.187-3.5 2.562-6.438C329 136 329 136 330 136Z" fill="#F5F9F7"/><path d="M199 299c3.283 1.49 5.93 3.386 8.75 5.625l2.422 1.914L212 308l-1 3h-6l-.813 2.875C203 317 203 317 200 319c-3.243.603-5.253.402-8.168-1.168-4.136-2.848-4.136-2.848-5.832-4.832-.316-2.598-.316-2.598 0-5 2.456-2.99 5.08-3.266 8.75-3.688 1.416-.116 2.832-.224 4.25-.312l-.563-1.938L198 300l1-1Z" fill="#EBF2EF"/><path d="M293 236c2.508 1.827 4.771 3.844 7 6 0 2.25 0 2.25-1 5-2.001 1.234-4.008 2.128-6.188 3.008-2.165.918-2.165.918-2.812 3.992-1.672.965-1.672.965-4 1a58.361 58.361 0 0 1-6.25-4.438l-1.68-1.314A384.395 384.395 0 0 1 274 246l1-2h6l.75-2.813c2.302-5.869 5.265-7.182 11.25-5.187Z" fill="#E1ECE7"/><path d="m308 331 2 2c-12.416 9.35-24.913 18.586-37.437 27.791-8.212 6.038-16.417 12.082-24.563 18.209a2608.009 2608.009 0 0 1-18.125 13.5l-2.406 1.781A802.288 802.288 0 0 1 221 399l-1.75 1.267c-3.734 2.61-6.699 3.369-11.25 3.733 2.005-3.008 3.587-4.72 7-6h3v-2c5.294-4 5.294-4 9-4v-2c1.67-1.295 1.67-1.295 3.969-2.746 4.613-2.976 9.085-6.097 13.531-9.317l2.337-1.688c6.097-4.428 12.085-8.986 18.052-13.585a449.641 449.641 0 0 1 14.64-10.77c5.247-3.713 10.425-7.515 15.596-11.332l2.48-1.83c3.474-2.565 6.942-5.138 10.395-7.732Z" fill="#585457"/><path d="M54 231h3c2.188 1 2.188 1 4 2l-1 2 2 2-1 3v3c-2.815 2.73-5.145 3.466-9 3.813l-2.563.269c-2.75-.093-4.163-.55-6.437-2.082-1.938-3.313-1.938-3.313-3-7 1.198-3.295 2.607-4.682 5.313-6.875 3.355-1.405 5.198-.96 8.687-.125Z" fill="#D5F2F9"/><path d="M348.145 130.895c1.664.959 3.267 2.024 4.855 3.105-1.802 5.406-7.293 8.11-12 11-2.784 1.146-3.918 1.252-7 1-2.935-2.008-3.816-3.325-4.75-6.75L329 137l-3 2c1.506-4.218 4.24-5.775 8-8 4.647-1.549 9.534-2.029 14.145-.105Z" fill="#E9F1ED"/><path d="M374 101c2.031.234 2.031.234 4.5.75l2.469.484L383 103l1 3 3 1v-2l4 2-1 3c-3.49 1.477-7.274 1.072-11 1l-1 2-8-1 3 3-2 1v2h-3v4l2 1h-9c-.808-3.837-1-7.064-1-11 2.967-1.648 5.656-2.443 9-3l-3-4c1.813-.688 1.813-.688 4-1 1.75 1.438 1.75 1.438 3 3l-.063-2.438C373 102 373 102 374 101Z" fill="#0F7747"/><path d="M301 55v2l3 1-.188 3.313c-.168 3.608-.168 3.608 1.688 5.624L307 68l4-3c.625 1.813.625 1.813 1 4-2 3-2 3-4.164 3.512l-2.461.175-2.477.2L301 73v-2l-2-1-1 1c-2-.25-2-.25-4-1l-1-3a168.693 168.693 0 0 0-6-2l-1-2c.855-1.875.855-1.875 2.188-4l1.292-2.125c3.664-4.521 6.406-3.967 11.52-1.875Z" fill="#0B7042"/><path d="m424 162-1 4c2.428 0 4.63-.5 7-1l-1 4h3v2h-2l2 6c-3.724.693-7.21 1.111-11 1l1 3h-2v-2h-3c-.125-6.75-.125-6.75 1-9h-4l-1 5h-3c-.2-3.716-.152-4.772 2-8l3-2-1-3c6.981-1.51 6.981-1.51 10 0Z" fill="#0F7747"/><path d="m202 90 2 1a334.484 334.484 0 0 1-3.25 3.938l-1.828 2.214c-2.03 1.951-3.176 2.465-5.922 2.848l1.5 1.25C196 103 196 103 196 107h-3v4h-3l-1 4h2l-1 3-3-1c-1.188-2.563-1.188-2.563-2-5l-1 4-6 1v-2h3l-1.188-2.688C179 109 179 109 179.953 106.645c2.806-3.625 6.171-5.785 9.984-8.27 1.427-.95 2.852-1.9 4.278-2.852l2.003-1.325A103.086 103.086 0 0 0 202 90Z" fill="#2E8459"/><path d="m368 118 3 1 1 5h6l-1 2h10v1h7v2c-6.588 4.392-14.774 3.231-22.375 2.688l-2.46-.176c-2.592-.613-3.338-1.646-5.165-3.512-1.975-.535-1.975-.535-4.063-.625C356 127 356 127 354 126c-2-.04-4-.043-6 0 .57-1.95.57-1.95 2-4 3.117-.645 3.117-.645 6.875-.813l3.742-.207c2.746.016 4.804.171 7.383 1.02v-4Z" fill="#8BBCA2"/><path d="M304 325c2.277-.358 2.277-.358 4-1l1 2h2l1-2h2c-1.898 5.402-4.37 7.716-9.125 10.75-4.836 3.16-9.364 6.645-13.875 10.25l-2-1c4-6.571 4-6.571 8-8-2.156 0-3.924.447-6 1v-4l2.938-1.438c2.867-1.264 2.867-1.264 4.062-2.562l-4-1v-3c3.608-1.249 6.293-.618 10 0Z" fill="#49996E"/><path d="m449 163 3 2c-1.141 3.423-2 4.148-5 6h-3l-1 3a90.576 90.576 0 0 1-4 4l-2 2-3-1 1 4-2 1 1 2c-3.875-.875-3.875-.875-5-2h-4v2c-4.677-1.477-4.677-1.477-6.313-4.125L418 180h3v-2l11-1-2-5 7 4 1-3c.651-1.34 1.315-2.676 2-4h4v-3l6 1-1-4Z" fill="#147A4A"/><path d="M216 291c2.899 1.743 5.454 3.778 8 6-.323 2.988-.652 4.613-2.688 6.875-3.335 1.623-4.78 1.28-8.312.125-2.809-1.835-5.42-3.858-8-6 .313-2.375.313-2.375 1-5 3.824-2.55 5.454-2.596 10-2Z" fill="#E2EDE8"/><path d="M544 152h1c0 3.67-.03 5.939-2.56 8.707a217.27 217.27 0 0 1-14.628 11.23c-8.147 5.793-16.1 11.813-23.994 17.946l-2.564 1.976-2.271 1.765C497 195 497 195 494 196c1.276-3.852 2.481-5.787 5.79-8.129l2.33-1.68 2.505-1.754c1.73-1.241 3.459-2.483 5.188-3.726l2.636-1.88c3.766-2.703 7.474-5.48 11.176-8.268l1.988-1.495c11.014-7.063 11.014-7.063 18.387-17.068Z" fill="#827F85"/><path d="M343 198c2.238 1.137 2.238 1.137 4.313 2.688l2.113 1.511C351 204 351 204 351.328 206.59 351 209 351 209 349.438 210.876c-3.632 1.676-5.612 1.227-9.438.125-2.549-1.795-4.791-3.805-7-6 .548-2.653.788-3.788 2.75-5.75 2.732-1.518 4.156-1.54 7.25-1.25Z" fill="#DCEAE3"/><path d="M418.125 141.5c5.203.671 8.002 3.12 11.875 6.5-.313 2.375-.313 2.375-1 5-3.6 2.4-4.751 2.641-9 2-2.864-1.775-5.439-3.816-8-6 .732-4.638 1.107-6.697 6.125-7.5Z" fill="#C9DFD4"/><path d="M443.25 124c4.745 1.265 7.324 3.595 10.75 7-.573 2.867-.861 3.861-3 6-6.611.896-6.611.896-10.082-1.344A68.968 68.968 0 0 1 436 131c.313-2.375.313-2.375 1-5 3-2 3-2 6.25-2Z" fill="#C5DCD1"/><path d="m172 154 10 4-2 1 1 4-2 1-3-1 .688 1.75c.312 2.25.312 2.25-1 4.375A101.757 101.757 0 0 1 172 173l-1.875-1.938c-1.951-2.1-1.951-2.1-4.125-3.062l-3-3c5-5 5-5 7.313-7.188 1.914-1.643 1.914-1.643 1.687-3.812Z" fill="#3B9163"/><path d="m356 188 1.828 1.242 2.422 1.633 2.39 1.617A56.232 56.232 0 0 0 369 196l-3 2-1.902 1.543-2.036 1.644-2.027 1.668C358 204 358 204 355.746 203.675L354 203l-.586-6.055c-.278-2.172-.278-2.172-2.414-3.945-2.108.319-2.108.319-4 1v3h-2c.313-2.375.313-2.375 1-5 3.644-2.43 5.712-2.162 10-2v-2Z" fill="#338C5F"/><path d="M287.188 345.375 289 346c-8.53 6.45-17.096 12.843-25.75 19.125l-2.308 1.684-2.176 1.574-1.913 1.387c-1.889 1.254-3.807 2.26-5.853 3.23 2.096-5.124 4.351-7.107 9-10v-2l-2-2 1-2 7 1v-3l2.813.25L272 355c1.512-1.793 1.512-1.793 3-4 2.256-1.504 4.604-2.716 7-4 3-2 3-2 5.188-1.625Z" fill="#53A075"/><path d="M262 259v3l2.375-.125C267 262 267 262 269 264c.313 2.5.313 2.5 0 5-3.673 2.449-5.664 2.315-10 2l-2-2v-3l-5-1c-.188-2.375-.188-2.375 0-5 3.85-2.567 5.586-1.833 10-1Z" fill="#DDEAE4"/><path d="m448 150 4 4h2l1-2h3l-1 4 2.313-.563C462 155 462 155 465 156l-1-4 3 1-1 4-6 1v3c2.437-.27 2.437-.27 5-1l2-3 2 1c-1.688 2.5-1.688 2.5-4 5-2.75.313-2.75.313-5 0l-1-3-7 2-2-2v-2l-9 3v-3h2c1.106-2.39 1.106-2.39 2-5l-1-2c2-1 2-1 4-1Z" fill="#04703F"/><path d="M85.25 233c2.73.992 4.065 1.66 5.75 4v2l-3 2c-1.16 2.444-2 4.283-2 7l-5 1v-3l-5-1-1-7c5.848-5 5.848-5 10.25-5Z" fill="#6EB08D"/><path d="M431.25 133.313 434 134l1 3 2.375.375C440 138 440 138 442 140c-.188 2-.188 2-1 4-3.452 2.302-4.947 2.345-9 2l-2-2v-3l-5-1-1-4c2.637-2.536 3.509-3.047 7.25-2.688Z" fill="#B5D3C3"/><path d="M338 197v2c-2 1.625-2 1.625-4 3 .386 2.45.677 3.7 2.523 5.414l1.852 1.211 1.836 1.227L342 211l3 2a125.024 125.024 0 0 1-4 6h-2v-4c-2.287-2.223-2.287-2.223-5.25-4.188l-2.953-2.105c-2.396-1.462-4.064-2.27-6.797-2.707 2.11-6.007 2.11-6.007 5-8 3.04-.587 5.904-1 9-1Z" fill="#2F8A5B"/><path d="M323.938 33.125 326 34l3.188.875L332 36c1 3 1 3 1 5h3l.688 1.875c1.691 2.74 3.304 3.175 6.312 4.125v2c-5.808-.502-10.105-2.197-15.25-4.875l-2.14-1.066c-3.38-1.723-6.004-3.256-8.61-6.059 4.405-4.038 4.405-4.038 6.938-3.875Z" fill="#D9B41C"/><path d="M341.125 305.25C343 306 343 306 344 308c-10.935 8.093-21.897 16.139-33 24 0-3.881.895-5.74 3-9 1.588-.728 3.187-1.442 4.832-2.031 6.903-3.085 12.56-8.09 17.168-13.969 3-2 3-2 5.125-1.75Z" fill="#727D7A"/><path d="M367 41v3l-2.75 1.25c-3.23 1.538-3.23 1.538-5.25 3.75-2.426 2.426-4.868 3.638-8 5h-2v2c-2.813 2.188-2.813 2.188-6 4l-3-1v-4l1.74-.808c2.347-1.238 4.312-2.648 6.412-4.266l2.354-1.772c1.624-1.23 3.241-2.47 4.851-3.718l2.358-1.76 2.129-1.628c2.77-1.347 4.262-.913 7.156-.048Z" fill="#1A5B39"/><path d="m322 231 1 2c2.017 1.134 2.017 1.134 4 2l-2 7h-3l1 3-1.875.25c-2.31.563-2.31.563-3.375 2.813L317 250l-4-1 1-1.813c1.208-2.24 1.208-2.24 1-5.187l-2-1 1-4h2v-2c3.53-4 3.53-4 6-4Z" fill="#368E60"/><path d="M399 194c2.972 1.125 5.334 2.223 8 4l-1 2-2-1c-.68 2.397-.68 2.397-1 5l2 2c.125 3.625.125 3.625 0 7l3 1v3l4-1 2 3-4 2v-2l-2.313.125C405 219 405 219 402 217l1-6h-2l1-4-4 1 1-3c.23-2.363.23-2.363-2.5-4.625L394 198h3v-2h2v-2Z" fill="#228152"/><path d="M60 222c6.75.75 6.75.75 9 3l2 1-3 2 3 3c-5.532 1.65-9.229 2.154-15 1h-2a139.724 139.724 0 0 1-4-1l2-4 3 1a282.832 282.832 0 0 0 5-5v-1Z" fill="#71DEF8"/><path d="m177 314 2 1-1 6 1.563-1.563c3.435-2.026 5.635-1.282 9.437-.437l2 1c.25 2.313.25 2.313 0 5-2.158 2.407-3.721 2.94-6.875 3.625-4.085-.817-5.556-2.518-8.063-5.742-1.062-1.883-1.062-1.883-1-4.695A78.557 78.557 0 0 1 177 314Z" fill="#E4EFEA"/><path d="m338 134.188 2.625.292C343 135 343 135 346 137v2c-2.188 1.727-2.188 1.727-5 3.625l-2.813 1.914L336 146c-2.468-1.152-4.048-2.048-6-4-.36-2.8-.472-4.346 1.207-6.672 2.447-1.813 3.811-1.518 6.793-1.14Z" fill="#228253"/><path d="m310 73 2 3 3-1 2 2-1.688.688c-2.485 1.275-2.485 1.275-4.687 3.687-2.712 2.712-5.301 4.716-8.625 6.625h-4c-.243-4.124-.026-7.353 2-11 2.34-.84 4.542-1.247 7.004-1.578L309 75l1-2Z" fill="#136F44"/><path d="m152 237 2 2c-.375 2.625-.375 2.625-1 5l2 1 1-1 1 3 2 1-3 6h-5l1 3-2 2c-2.336-2.123-4.123-3.93-5-7 1.167-3.01 2.236-5.295 4.625-7.5 2.051-2.238 2.048-4.558 2.375-7.5Z" fill="#53A478"/><path d="m267 249 2 1-1 6 1.625-1.5c3.026-1.911 4.852-1.875 8.375-1.5l3 2c.438 2.438.438 2.438 0 5-2.068 2.221-3.456 2.902-6.438 3.438-3.417-.584-5.07-2.085-7.562-4.438-1.37-2.74-1.126-4.97-1-8l1-2Z" fill="#DFEBE5"/><path d="M301 55v2l3 1v2l-3.813.688c-3.36.814-3.99 1.054-6.187 3.937L293 67a101.168 101.168 0 0 1-6-2l-1-2c.855-1.875.855-1.875 2.188-4l1.292-2.125c3.664-4.521 6.406-3.967 11.52-1.875Z" fill="#1C5C3C"/><path d="M409 150c2.65 1.807 4.556 3.112 6 6 .23 5.538.23 5.538-1 8l-2-1v-5l-3 2c-3.182.331-5.174.506-7.938-1.188C400 157 400 157 400.125 154.438c1.587-4.42 4.589-5.05 8.875-4.437Z" fill="#187C4C"/><path d="M233 315c3.914 1.27 5.79 2.512 8 6l-4-1 1 4-5 2c-1-1-1-1-1.063-4.063L232 319h-3l-1 6 4 2c-2.528 2.799-4.204 4.458-8 5l-.313-2.875c-.372-3.416-.372-3.416-3.687-5.125l7-2 1-4h7l-2-3Z" fill="#8BBEA3"/><path d="m308 331 2 2a2975.721 2975.721 0 0 1-30.625 22.773l-2.2 1.613a314.19 314.19 0 0 0-4.445 3.361l-2.168 1.667-1.933 1.506C267 365 267 365 265 365c1.51-4.144 4.422-6.005 7.938-8.375a1832.52 1832.52 0 0 0 3.785-2.633l2.07-1.438c4.075-2.87 8.075-5.841 12.082-8.804l2.375-1.751c4.934-3.643 9.849-7.312 14.75-10.999Z" fill="#656365"/><path d="m383 116 5 2-1 2 10 1-1 5c-16.708 3.444-16.708 3.444-25 3v-1l6.055-.488c2.34-.386 2.34-.386 3.945-3.512h2v-2l-2-1h2v-5Z" fill="#087443"/><path d="M45 232c1.875.813 1.875.813 4 2l2.063.938c2.04 1.119 3.337 2.39 4.937 4.062l2 1c-7.286 4.429-7.286 4.429-12 5l2-4-6 2c-1.188-2.188-1.188-2.188-2-5 1.318-2.899 2.121-4.56 5-6Z" fill="#DFF5F9"/><path d="M378 110h9v2l-6 1-1 4h-2l-1 7c-2.995.872-5.636 1.108-8.75 1.063l-2.422-.028L364 125v-1h8c-.348-1.975-.348-1.975-1-4l-2-1h2l-2-8 9 2v-3Z" fill="#0D7746"/><path d="M301.688 230.375 304 231c-.506 2.169-1 4-2 6l2 1c.625 3.063.625 3.063 1 6l-4 1 1 5-3-2 .25-2.75c.083-3.23.083-3.23-1.797-4.977A89.124 89.124 0 0 0 292 236c5.943-6.148 5.943-6.148 9.688-5.625Z" fill="#3B9164"/><path d="M275 244c6.35-.508 9.826-.09 15 4a85.912 85.912 0 0 0 4 2l-3 1-1 3c-1.672.965-1.672.965-4 1a58.361 58.361 0 0 1-6.25-4.438l-1.68-1.314A384.395 384.395 0 0 1 274 246l1-2Z" fill="#4A9A6F"/><path d="M199 299c3.283 1.49 5.93 3.386 8.75 5.625l2.422 1.914L212 308l-1 3c-6.92.607-9.671-.56-15-5l1-2h2l-.563-1.938L198 300l1-1Z" fill="#60A780"/><path d="M212 334c1.5 1.375 1.5 1.375 3 3v2h-4l-.438 2.438C210 344 210 344 209 345c-5.287.46-5.287.46-7.938-1.25-1.062-1.75-1.062-1.75-.75-3.938L201 338l5-1v-2l6 1v-2Z" fill="#81BB9B"/><path d="M285 222c2 1 2 1 4 3l1 3-3 1-.25 3.375C286 236 286 236 284.125 237.438 282 238 282 238 279 238l-2-7 2.375-.625c2.927-1.174 2.927-1.174 3.875-4.438L284 223l1-1Zm-5 9-1 2h2l-1-2Z" fill="#3D9365"/><path d="M301 143c3.683.616 5.905 2.202 8.844 4.457l2.777 2.123 2.879 2.232 2.879 2.198c4.107 3.157 8.018 6.256 11.621 9.99l-1 2c-2 0-2 0-4.055-2.05l-1.33-1.386c-3.322-3.218-7.077-5.938-10.74-8.751l-2.457-1.905c-3.096-2.392-6.162-4.737-9.418-6.908v-2Z" fill="#DEEBE5"/><path d="m422 139 2 2c3.083.167 3.083.167 6 0l2 4h7l1 2-3 3-2-2 1 3-2.438.375L431 152l-1 2c-1-3-1-3-1.188-4.938-1.312-3.33-3.766-4.363-6.812-6.062-2.728-.782-2.728-.782-5-1l1.938-.938c1.998-.897 1.998-.897 3.062-2.062Z" fill="#167B4C"/><path d="m68 247 2.438.5c2.539.766 2.539.766 4.562-.5-.125 1.75-.125 1.75-1 4-5.222 4-5.222 4-8 4l-1 4c-4 0-4 0-5.75-1.25C58 256 58 256 58 252c3-1 3-1 6 0l1-2 4 1v-2l-2-1 1-1Z" fill="#65AE86"/><path d="M283 35v3c-3 2-3 2-6 2l-1 4 2 1-2 3c-4.732.93-8.383 1.231-13 0a15056.7 15056.7 0 0 1 7.313-5.375l2.091-1.54 2.022-1.483 1.856-1.365C280.777 35 280.777 35 283 35Z" fill="#097444"/><path d="m352 115 1 2-1 2 6-2 2 4-3 1 3 2-2.082.184-2.73.254-2.708.246c-2.607.25-2.607.25-5.48 1.316v-4h-2l-1-4 2.313-.375c2.89-.506 2.89-.506 5.687-2.625Z" fill="#218153"/><path d="M209 292c5.352.324 8.283 3.497 12 7l-1 4c-5.352-.324-8.283-3.497-12-7l1-4Z" fill="#5AA67D"/><path d="M189 307c3.138-.308 4.593-.278 7.238 1.531l2.075 1.969 2.113 1.969L202 314l-1 3c-3.138.308-4.593.278-7.238-1.531l-2.075-1.969-2.113-1.969L188 310l1-3Z" fill="#5EA77F"/><path d="M289 167c3.726.617 6.002 2.262 8.984 4.527l2.832 2.15 2.934 2.26 2.98 2.249a399343097.308 399343097.308 0 0 1 5.406 4.134L314 184v2c-3.46-.612-5.49-1.914-8.223-4.09l-2.38-1.877-2.46-1.97c-1.615-1.281-3.23-2.561-4.847-3.84l-2.16-1.727c-1.592-1.234-3.254-2.379-4.93-3.496v-2Z" fill="#E0ECE6"/><path d="m255 258 7 1v3l2.375-.125C267 262 267 262 269 264c.313 2.5.313 2.5 0 5-3.644 2.43-5.712 2.162-10 2l-2-4 2-2 2 3c3.066.733 3.066.733 6 1-2.118-3.283-3.27-4.13-7-5l-1-3c-1.997-1.685-1.997-1.685-4-3Z" fill="#E1EDE7"/><path d="M287.86 237.246c2.542.896 4.271 2.157 6.39 3.816l2.14 1.66L298 244l-1 3c-4.104.323-6.067-.3-9.313-2.813l-2.113-1.582C284 241 284 241 284 238c2-1 2-1 3.86-.754Z" fill="#47986D"/><path d="M287.188 345.375 289 346l-20 15-2-1 1-2-2-1v-2l2.813.25L272 355c1.512-1.793 1.512-1.793 3-4 2.256-1.504 4.604-2.716 7-4 3-2 3-2 5.188-1.625Z" fill="#729282"/><path d="m449 163 3 2c-1.141 3.423-2 4.148-5 6h-3l-1 3c-2.704 2.103-4.164 3.06-7.625 2.813C433 176 433 176 430 174l1-2 6 4 1-3c.651-1.34 1.315-2.676 2-4h4v-3l6 1-1-4Z" fill="#ACCEBD"/><path d="M288 164c6.44.623 12.676 1.64 19 3-2.803 3.114-5.093 4.562-9 6-1.67-1.309-3.336-2.622-5-3.938l-2.813-2.214L288 165v-1Z" fill="#338C5E"/><path d="m411 157 2 1-1 8c-3.375-.547-5.082-1.055-8-3l2 3-2 2-2-3-2-1-2-3c2-2 2-2 4.094-2.125l4.812.25c2.317.094 2.317.094 4.094-2.125Z" fill="#0E7746"/><path d="M337 200c5.352.324 8.283 3.497 12 7l-1 3c-5.027-.457-8.149-2.992-12-6l1-4Z" fill="#338C5E"/><path d="M417.89 143.293c2.244.752 3.915 1.677 5.86 3.02l1.86 1.238C427 149 427 149 427 153c-4.104.323-6.067-.3-9.313-2.813l-2.113-1.582C414 147 414 147 414 144c2-1 2-1 3.89-.707Z" fill="#157A4B"/><path d="M33 208c1 4 1 4 0 7h-3l1 4-1-2-3.25 1.625L23 220l-4-2 14-10Z" fill="#5B9776"/><path d="M360 183c3.356.62 5.523 1.845 8.25 3.875l2.14 1.555L372 190v3c-4.197.353-6.065-.358-9.313-3l-2.113-1.688L359 187l1-4Z" fill="#248354"/><path d="M439 126c5.027.457 8.149 2.992 12 6l-1 4c-3.44-.612-5.516-1.92-8.25-4.063l-2.14-1.66L438 129l1-3Z" fill="#0D7344"/><path d="M352.125 190.313C355 191 355 191 356 192c.072 1.686.084 3.375.063 5.063l-.028 2.785L356 202l8-4v2c-5.142 4.09-5.142 4.09-8.375 3.75L354 203l-.586-6.055c-.278-2.172-.278-2.172-2.414-3.945-2.108.319-2.108.319-4 1v3h-2c.313-2.375.313-2.375 1-5 3-2 3-2 6.125-1.688Z" fill="#DFECE6"/><path d="M399 194c2.972 1.125 5.334 2.223 8 4l-1 2-2-1-1 4c-4.314-.48-6.166-1.746-9-5h3v-2h2v-2Z" fill="#69AA89"/><path d="M243 164h2v2l3 1v2c1.458 1.625 1.458 1.625 3 3h-2l1 4-5 1v-2h-2c-.625-2.313-.625-2.313-1-5l2-3-1-3Z" fill="#338C5D"/><path d="M398 98h10v2l2.313.813C413 102 413 102 416 105l-10 1v-2h-3v-2h-2v-2h-3v-2Z" fill="#2A8457"/><path d="M402 257h5c-3.895 3.14-7.843 6.205-11.813 9.25l-1.81 1.39L389 271c0-2.664.092-4.523 1-7l3-1 1-3 3 2h2l1-3h2v-2Z" fill="#33865D"/><path d="m412 116-4 2v2a62.577 62.577 0 0 1-10.625 1.25l-2.227.078c-2.713-.414-4.093-1.561-6.148-3.328 2.895-.337 5.791-.67 8.688-1 .816-.095 1.633-.19 2.474-.29 3.967-.449 7.838-.84 11.838-.71Z" fill="#6DAB8B"/><path d="M326 320c-4.41 4.851-9.58 8.348-15 12 0-3.881.895-5.74 3-9 4.073-2.263 7.334-3.424 12-3Z" fill="#747B7A"/><path d="M544 152h1c0 3.831-.11 5.978-2.672 8.918-3.528 3.11-7.162 5.869-11.328 8.082l-3-2 2.266-1.61 2.984-2.14c.975-.696 1.95-1.392 2.953-2.11 4.98-3.763 4.98-3.763 7.797-9.14Z" fill="#7C7A7F"/><path d="M435 138c2.375-.125 2.375-.125 5 0l2 2c-.188 2-.188 2-1 4-3.452 2.302-4.947 2.345-9 2l-2-2v-3h-4v-2c2.875.313 2.875.313 6 1l2 3c2.563.73 2.563.73 5 1-.998-2.993-1.752-3.948-4-6Z" fill="#DBE9E3"/><path d="M385 129h8l-1 4h-4l-1 6-5-2 1-4-4 1v-2l7-1-1-2Z" fill="#1F8151"/><path d="m261 49 2 1-2 2c.882 2.882.882 2.882 2 5l-2 2-2-1v2l-5-1 1-2-4-1 10-7Z" fill="#0F7747"/><path d="m218 79 2 1c-.375 2.438-.375 2.438-1 5l-2 1-2 3-2.313-1c-2.678-1.174-2.678-1.174-5.687-1l11-8Z" fill="#337A5A"/><path d="M284 349c0 3 0 3-1.529 4.534l-2.12 1.603-2.296 1.748-2.43 1.803-2.406 1.837C267.279 365 267.279 365 265 365c1.54-4.565 5.136-6.534 8.938-9.125l1.92-1.34A489.555 489.555 0 0 1 284 349Z" fill="#5F5D60"/><path d="M362 40c-3.676 4.01-7.19 6.453-12 9v-2h-2c1.062-3.422 2.06-4.032 5.313-5.75 3.242-1.1 5.329-1.555 8.687-1.25Z" fill="#848525"/><path d="M233 315c3.914 1.27 5.79 2.512 8 6l-4-1 1 4-5 2c-1-1-1-1-1.063-4.063L232 319l-4-1h7l-2-3Z" fill="#A2CBB5"/><path d="M406.25 149.688c3.61.41 5.144 1.851 7.75 4.312 1.37 2.74 1.126 4.97 1 8l-1 2-2-1v-5h-2l-1.375-2.375c-1.702-2.749-2.67-3.504-5.625-4.625 1-1 1-1 3.25-1.313Z" fill="#CFE2D9"/><path d="m210.813 300.938 2.394 1.714L215 304c-2.647 1.46-3.894 2-7 2-1.824-1.277-1.824-1.277-3.688-2.938l-1.886-1.652L201 300v-1c4.407-1.37 6.133-.754 9.813 1.938Z" fill="#60A881"/><path d="M275 244c3.952.582 6.221 2.552 9.25 5.063l2.703 2.222L289 253l-1 2c-3.837-1.35-6.652-3.078-9.813-5.625l-2.394-1.914L274 246l1-2Z" fill="#E7F0EC"/><path d="M68 233c2 1 2 1 3 3l-9 6-2-2v-4l-1-2 3.938.063A59.19 59.19 0 0 0 67 234l1-1Z" fill="#7AE0F9"/><path d="M406 189c2.962.613 4.38 1.254 7 3l-1 5c-3.821-.53-6.062-1.497-9-4l1-3 1 2 2-1-1-2Z" fill="#86BA9F"/><path d="M199 299c3.237 1.485 5.933 3.327 8.75 5.5l2.422 1.844L212 308v2c-4.225-.533-6.54-1.877-9.813-4.563l-2.394-1.94L198 302l1-3Z" fill="#ECF3EF"/><path d="M209 291c5.034-.63 7.35-.104 11.438 3 1.2.984 2.392 1.98 3.562 3l-1 5a1716.08 1716.08 0 0 1-3.313-2.813l-1.863-1.582C216 296 216 296 214.406 294.375c-1.644-1.607-3.319-2.44-5.406-3.375Z" fill="#EDF3F0"/><path d="m171 234 3 2v4l-3 3v4h-3l-1-3 2-3-2-1c1.152-2.468 2.048-4.048 4-6Z" fill="#51A276"/><path d="M414 181h3c2.25 2.75 2.25 2.75 4 6-.39 2.203-.39 2.203-1 4-1.46-.06-2.918-.149-4.375-.25l-2.46-.14C411 190 411 190 409.71 187.952L409 186h2v2l5-1-2-6Z" fill="#65A786"/><path d="M360 182c5.509-.562 8.297.377 12.617 3.516 1.648 1.769 1.99 3.127 2.383 5.484l-3 2-.563-1.688C369.33 187.922 366.3 186.16 363 184l-3-2Z" fill="#E3EEE9"/><path d="m464 152 3 1-1 4-6 1v3c2.437-.27 2.437-.27 5-1l2-3 2 1c-1.688 2.5-1.688 2.5-4 5-2.75.313-2.75.313-5 0l-1-5-3 1 1-3c3.287-.8 4.71-1.097 8 0l-1-4Z" fill="#A2C8B4"/><path d="m120 149 2 1h2l1 3-2.438 1.813c-2.785 1.996-2.785 1.996-3.562 5.187l-3-1c-.25-2.75-.25-2.75 0-6 2-2.375 2-2.375 4-4Z" fill="#3D9265"/><path d="m283 238 1 3c1.83 1.087 1.83 1.087 4 2 1.427.836 2.844 1.69 4.25 2.563l2.14 1.316L296 248v1c-3.253.488-5.347.4-8.18-1.336A129.37 129.37 0 0 1 282 243l1-5Z" fill="#EFF5F2"/><path d="M327 206c1.418.936 2.834 1.874 4.25 2.813l2.39 1.582c4.585 3.119 4.585 3.119 6.36 4.605v2c-4.225-.533-6.54-1.877-9.813-4.563l-2.394-1.94L326 209l1-3Z" fill="#E4EFEA"/><path d="m467 151 4 1 1 4-2.25.75c-2.951 1.341-4.598 2.86-6.75 5.25l-3-1v-3l6-2 1-5Z" fill="#589E7B"/><path d="m334 201 1.355 1.207c2.783 2.439 5.393 4.643 8.582 6.543L346 210v2c-5.97-.291-8.895-3.028-13-7l1-4Z" fill="#E7F0EC"/><path d="M242 182h2l-1 5h2l-1 5-3 1 1-5-1.875 1.5C238 191 238 191 236 191v-2l-2-1 2.313-.75c2.949-1.372 3.861-2.642 5.687-5.25Z" fill="#388F61"/><path d="M415 142c5.034-.63 7.35-.104 11.438 3 1.2.984 2.392 1.98 3.562 3l-1 4c-1.293-.956-2.584-1.915-3.875-2.875l-2.18-1.617C421 146 421 146 419 144c-2.584-.167-2.584-.167-5 0l1-2Z" fill="#D9E8E1"/><path d="M478 204c-4.266 4.541-9.036 8.247-14 12l-2-2c2.773-3.08 5.063-4.688 9-6v-2l-3-2c3.576-1.238 6.337-.75 10 0Z" fill="#1E794F"/><path d="m179 142 5 2c0 4.615 0 4.615-1 7-2.563 1.25-2.563 1.25-5 2l-2-2h4l-3-7h2v-2Z" fill="#368E60"/><path d="m387 105 4 2-1 3c-3.487 1.475-7.283 1.275-11 1l-2-3c3.473-1.158 6.36-1.069 10-1v-2Z" fill="#40926A"/><path d="m310 65 2 1-1 5c-6.286 2.429-6.286 2.429-10 1l3-6 3 2 3-3Z" fill="#205B3C"/><path d="m191 398 1.582.621c6.125 2.242 11.922 3.027 18.418 3.379-4.255 2.837-8.002 2.65-13 2-2.658-1.08-4.624-2.347-7-4v-2Z" fill="#2A272A"/><path d="m280 151 3 1v2c4.646-.485 4.646-.485 9-2l1 3c-3.674 2.45-5.668 2.077-10 2l-3 1v-7Z" fill="#2F895B"/><path d="m150 136 4 1-4 9-5-1-1-3h2l1-2 3-2v-2Z" fill="#378F60"/><path d="M59 191v2l-2 1c-.656 2.527-.656 2.527-1 5l-1-2c-3.299.723-3.299.723-4.688 4.063L49 204l-2-3-2-1a1361.25 1361.25 0 0 1 5.875-4.5c.556-.43 1.111-.859 1.684-1.3C56.773 191 56.773 191 59 191Z" fill="#5C9175"/><path d="M86 234c1.938.813 1.938.813 4 2l1 3-3 2c-1.192 2.05-1.192 2.05-2 4-3-3.625-3-3.625-3-7 1-2 1-2 3-4Z" fill="#A7CCB8"/><path d="M70 222c3.896 1.151 6.944 2.283 10 5l1 2-6 3-2-2 2-3-6-3 1-2Z" fill="#82E1F9"/><path d="m140 149 4 4c-2.75 3.875-2.75 3.875-5 5v-2l-4-1c2.75-4.875 2.75-4.875 5-6Z" fill="#3B9264"/><path d="m181 106 3 1-1 2h2v6l-6 2-1-2h3l-1.125-2.813L179 109l2-3Z" fill="#288556"/><path d="M421 178c3.366 1.443 5.51 3.333 8 6h-4v2c-4.677-1.477-4.677-1.477-6.313-4.125L418 180h3v-2Z" fill="#90BFA8"/><path d="m83 173 2 1-1.438 1.813c-1.727 2.19-1.727 2.19-2.562 5.187l-2.688.438c-2.783.472-5.547.993-8.312 1.562 4.247-3.451 8.611-6.733 13-10Z" fill="#5A8D73"/><path d="M389.188 122.938 391 124v2c-5.79 3.86-13.238 3.14-20 3v-1l2.336-.332 3.039-.48 3.023-.458c2.93-.518 2.93-.518 4.602-3.73 3-1 3-1 5.188-.063Z" fill="#1A7D4E"/><path d="m176 375 .375 1.875c.497 2.316.497 2.316 2.625 4.125h-4l1 3c-3.941-1.668-6.79-4.227-10-7 3 0 3 0 6 2l1-2h3v-2Z" fill="#6FA689"/><path d="m215 283 3 3-1 3 4 1-2 1v3l-3-2c-1.99-.39-3.99-.732-6-1l1.375-1.188c1.901-2.12 2.687-4.142 3.625-6.812Z" fill="#60A982"/><path d="m250 57 1 2-3 2a93.365 93.365 0 0 0-1 4l-2 1-1 1c-1.666.04-3.334.043-5 0 2.393-5.235 6.161-7.299 11-10Z" fill="#317658"/><path d="M181 320c4.554-.37 4.554-.37 6.813 1.5L189 323l-1 3c-2.375.125-2.375.125-5 0l-2-2v-4Z" fill="#61AA82"/><path d="M361 144h3c-.273 3.914-.75 5.703-3.313 8.75-2.222 1.861-4.026 3.166-6.687 4.25.188-1.75.188-1.75 1-4l2.5-1.938c2.716-1.848 2.716-1.848 3.313-4.812L361 144Z" fill="#E1EDE7"/><path d="M32 269c5.67 3.58 10.805 7.77 16 12l-3 1a81.588 81.588 0 0 1-6.688-5.313l-1.837-1.552c-1.538-1.327-3.012-2.726-4.475-4.135v-2Z" fill="#323133"/><path d="M369 245c2 1 2 1 2.688 2.938C372 250 372 250 371 252h-2l-1 2-5-2c.813-1.938.813-1.938 2-4l3-1 1-2Z" fill="#2B8858"/><path d="m471 144 4 2v4c-1.688.688-1.688.688-4 1-2.75-1.313-2.75-1.313-5-3v-2l4 1 1-3Z" fill="#6CA98B"/><path d="M357 46c2.063.438 2.063.438 4 1-2.982 3.326-5.864 5.292-10 7l-2-1v-2l1.938-.313L353 50l1-3h2l1-1Z" fill="#284738"/><path d="M271 255c4.554-.37 4.554-.37 6.813 1.5L279 258l-1 3c-4.75-.875-4.75-.875-7-2v-4Z" fill="#489A6E"/><path d="m439 134 1.625.938c2.773 1.24 5.375 1.653 8.375 2.062l-4 2 2 2-5 1c-2.063-2.313-2.063-2.313-4-5l1-3Z" fill="#1B7C4F"/><path d="m308 77 4 1v3c-1.813 1.563-1.813 1.563-4 3l-3 2-2-2v-3h3l2-4Z" fill="#205B3D"/><path d="M238 312h3v3h4v2h-4v2l2 1c-3 0-3 0-4.75-1.188-1.25-1.812-1.25-1.812-.938-4.5L238 312Z" fill="#56A178"/><path d="M286 254v2c-2.5 1.625-2.5 1.625-5 3l-.125-1.875L280 255c-2.996-1.305-2.996-1.305-6-2v-1c5.151-1.288 7.577-.949 12 2Z" fill="#4F9D74"/><path d="M318 159c4.248.472 6.2 2.967 9 6-7.429-1-7.429-1-11-2l2-4Z" fill="#338C5F"/><path d="m383 156 1 2 2 1-1 6-1-2a78.037 78.037 0 0 0-5-2v-3l4-2Z" fill="#127949"/><path d="m439 231 3 1-16 12v-3l3-1v-2c2.082-1.762 2.082-1.762 4.813-3.688l2.707-1.949L439 231Z" fill="#327C5B"/><path d="m71 225-3 3 3 3-3 1c-2.5-1.313-2.5-1.313-5-3l-3-2c3.823-1.423 6.913-2.24 11-2Z" fill="#90E4F9"/><path d="M71 218c-1 3-1 3-3.313 4.25-2.786.778-4.021.737-6.687-.25 5.25-5.425 5.25-5.425 10-4Z" fill="#5BD9F7"/><path d="M360 183c3.27.564 4.826 1.5 7 4l-4 3-4-3 1-4Z" fill="#2C8859"/><path d="M455 152h3l-1 6h2v2l-5 1-2-3 3-6Z" fill="#177B4C"/><path d="M440 124c6.4.492 6.4.492 9.438 3.063L451 129l-1 2-1.563-.813c-3.101-1.51-6.26-2.843-9.437-4.187l1-2Z" fill="#BBD6C8"/><path d="m202 90 2 1a334.484 334.484 0 0 1-3.25 3.938l-1.828 2.214c-2.04 1.961-3.11 2.668-5.922 2.848l-2-2 11-8Z" fill="#437963"/><path d="M350 264c1.206 2.332 2.165 4.496 3 7l1-2 3 1-2 1-1 3-4-1-2-8 2-1Z" fill="#358E5F"/><path d="m68 247 2.438.5c2.539.766 2.539.766 4.562-.5-.125 1.75-.125 1.75-1 4-3.063 2.25-3.063 2.25-6 4l-2-1v-3h3v-2l-2-1 1-1Z" fill="#BED8CB"/><path d="M333 206c4.875 1.75 4.875 1.75 6 4h-2v2l2 1c-3.396 0-4.066-.522-6.688-2.5l-1.886-1.406L329 208l2-1 2 1v-2Z" fill="#3D9266"/><path d="m491 187 3 1v4l-6 1-2-3c2.313-1.563 2.313-1.563 5-3Z" fill="#047140"/><path d="M421 184c2.875.188 2.875.188 6 1 1.375 2.563 1.375 2.563 2 5l-5 1c-3-4.75-3-4.75-3-7Zm7 2 2 1Z" fill="#1F8051"/><path d="M391 130v1c-6.95 1.794-14.002 1.191-21 0v-1c7.18-.711 13.87-1.258 21 0Z" fill="#6FAD8C"/><path d="m301 337-10 8-2-1c5.283-8.68 5.283-8.68 12-7Z" fill="#789286"/><path d="m82 238 3 1v3c.314 2.003.645 4.004 1 6l-5 1 .5-3.25c.588-3.78.588-3.78.5-7.75Z" fill="#59A77C"/><path d="M468 213c-.125 1.75-.125 1.75-1 4-2.813 2.313-2.813 2.313-6 4-2.2-.395-2.2-.395-4-1a790.547 790.547 0 0 1 4.375-3.5l2.46-1.969C466 213 466 213 468 213Z" fill="#8A868C"/><path d="M401 152c2 1 2 1 2.813 3 1.047 2.285 1.047 2.285 3.812 2.75L410 158l-1 2c-5.411.36-5.411.36-7.938-1.188-1.062-1.812-1.062-1.812-.75-4.5L401 152Z" fill="#D4E5DD"/><path d="m450 152 2 2-1 1 1.563 1.25L454 158c-.313 2.188-.313 2.188-1 4l-3-2v-2l-5-2 5-4Z" fill="#0B7545"/><path d="M386 116h11l-1 2 2 2-11 1-1-5Z" fill="#187C4D"/><path d="M176 384h6l1.375 2.813c1.567 3.226 1.567 3.226 3.625 6.187-2.965-1.358-5.291-2.924-7.75-5.063l-1.86-1.597L176 385v-1Z" fill="#73A38A"/><path d="M182 318c6.75.875 6.75.875 9 2v5l-2 1-1.188-2.438c-1.581-2.793-1.581-2.793-4.5-3.375L181 320l1-2Z" fill="#ECF3F0"/><path d="m428 241 2 1c-1.446 3.813-3.302 5.327-7 7l-4-1 9-7Z" fill="#89868C"/><path d="M159 141c1.642 3.283.519 6.425 0 10l-3 1c-1-1-1-1-1.313-3.813C155 145 155 145 157 142.625l2-1.625Z" fill="#389061"/><path d="M369 111a294.9 294.9 0 0 1 3.938.875l2.214.492C377 113 377 113 378 115c-2.36 2.36-3.779 2.491-7 3l-2-7Z" fill="#077342"/><path d="m308 184 6 2 1 5c-3.75 3-3.75 3-6 3l.625-3.313c.778-3.77.778-3.77-1.625-6.687Z" fill="#2B8758"/><path d="m448 159 7 4c-1.75 5.75-1.75 5.75-4 8v-2l-2-1 2-1-.938-2.313A110.556 110.556 0 0 1 448 159Z" fill="#4B9772"/><path d="M440 162c1.67.316 3.336.652 5 1h4l1 4-9-1v-2l-2-1 1-1Z" fill="#338B61"/><path d="m172 111 4 1-3 1-1 3-3-1 3-4Zm-4 5 2 3-3 2c0-4 0-4 1-5Z" fill="#34885D"/><path d="m379 92 2 1v5l3 1-2 3-4-1h2l-1.5-2.313C377 96 377 96 377 93l2-1Z" fill="#1F7F51"/><path d="m249 373 2 1-9 7-2-1 1-3-1-3h3v2l2.875-1.563L249 373Z" fill="#6F8A7E"/><path d="M260 264c2.375.25 2.375.25 5 1 1.313 2.063 1.313 2.063 2 4h-6l-1-5Z" fill="#509E74"/><path d="M204 398c2.169.506 4 1 6 2v2h-10l-1-2h5v-2Z" fill="#68927C"/><path d="m48 230 2.813.5c3.143.577 3.143.577 6.187.5v4l-1.68-.438-2.195-.562-2.18-.563c-1.938-.51-1.938-.51-3.945-.437l1-3Z" fill="#ACEAF9"/><path d="m470 198 1 3 3-1 3 4-3.875.188-2.18.105L469 204l-2-3 3-3Z" fill="#067242"/><path d="m432 175 2.875.563c3.024.724 3.024.724 5.125-.563l-2 5h-7v-2l-2-1h3v-2Z" fill="#298759"/><path d="M433 139c1.675.286 3.344.618 5 1l1 4h-5l-2-4 1-1Z" fill="#147849"/><path d="m263 365-10 8-2-1c1.617-3.52 3.071-5.311 6.563-6.875C261 364 261 364 263 365Z" fill="#778981"/><path d="m21 257 1 2 3-1c1.563 1.25 1.563 1.25 3 3l-1 4-7-6 1-2Z" fill="#659B7F"/><path d="M15 248c1.563 1.188 1.563 1.188 3 3-.313 2.688-.313 2.688-1 5a697.93 697.93 0 0 1-3.5-2.438l-1.969-1.37L10 251v-1h5v-2Z" fill="#619B7C"/><path d="M158 230v2h-2l-1 3-4-4c3.625-2.125 3.625-2.125 7-1Zm-9 3 2 2-2 2v-4Z" fill="#51A276"/><path d="M437 164c1.563 1.063 1.563 1.063 3 3-.313 3.688-.313 3.688-1 7-1.5-1.375-1.5-1.375-3-3v-2l-2-1 2-1 1-3Z" fill="#238255"/><path d="M420 144v3l-3 2-3-2v-3c2.49-1.245 3.41-.777 6 0Z" fill="#208053"/><path d="M435 138c2.375-.125 2.375-.125 5 0l2 2c-.375 2.125-.375 2.125-1 4l-5 1 3-1c-.998-2.993-1.752-3.948-4-6Z" fill="#C4DCD0"/><path d="M219 400c-3.423 3.15-6.443 3.562-11 4 1.63-2.658 2.484-3.832 5.5-4.813C216 399 216 399 219 400Z" fill="#464547"/><path d="m187 393 6 3 1-2 2 1v3l2 2c-5.041-.445-7.411-2.662-11-6v-1Z" fill="#76A28B"/><path d="m261 358 2 2c1.317.697 2.65 1.37 4 2-2.686 2.686-5.376 3.06-9 4l.938-2.313A110.556 110.556 0 0 0 261 358Z" fill="#669A7E"/><path d="M58 239c-3.487 4.359-6.728 4.946-12 6 3.89-4.025 6.233-6.312 12-6Z" fill="#EFF8F9"/><path d="M459 216h2c-1.464 4.392-3.978 4.88-8 7l-2-4c5.75-1 5.75-1 8-1v-2Z" fill="#267A53"/><path d="M256 188c2 1 2 1 2.813 2.875.187 2.125.187 2.125-1.25 3.875L256 196l-2-1v-6l2-1Z" fill="#348D5F"/><path d="m413 144 1 3c1.933 1.092 1.933 1.092 4 2l2 2c-1.75.688-1.75.688-4 1-2.25-1.438-2.25-1.438-4-3l1-5Z" fill="#DAE8E2"/><path d="M346.063 33.938 349 34l1 4h-6v-2l-2-1c1-1 1-1 4.063-1.063Z" fill="#888825"/><path d="M342 36h2v2h5l-1 4-5-1-1-5Z" fill="#DBB820"/><path d="M130 350c4.833.414 6.827 2.464 10 6-5.314 0-6.217-1.475-10-5v-1Z" fill="#3C3A3C"/><path d="M109 333c4.833.414 6.827 2.464 10 6-5.314 0-6.217-1.475-10-5v-1Z" fill="#3D3B3E"/><path d="m209 292 5 1v3l-4 2-2-2c.375-2.125.375-2.125 1-4Z" fill="#63AA83"/><path d="m255 259 5 2v3h-5c-.563-1.938-.563-1.938-1-4l1-1Z" fill="#55A178"/><path d="m46 240 4 2-3 2 2 3-6-2v-3l3-2Z" fill="#BFEEFA"/><path d="M301 172h4l3 6c-3 0-3 0-5.688-2.5L300 173l1-1Z" fill="#318A5D"/><path d="M235 139h2l2 4-5 4c-.625-2.875-.625-2.875-1-6l2-2Z" fill="#2D8859"/><path d="m346 137 2 3c-1.071.87-2.157 1.72-3.25 2.563l-1.828 1.44c-1.922.997-1.922.997-4.156.65L337 144a466.06 466.06 0 0 1 3.375-2.5l1.898-1.406C344 139 344 139 346 139v-2Z" fill="#DBE9E3"/><path d="M362 40c-2.808 2.964-5.183 5.445-9 7 .313-2.375.313-2.375 1-5 3.228-2.152 4.284-2.2 8-2Z" fill="#958D21"/><path d="M151 367c4.833.414 6.827 2.464 10 6l-2 1a962.085 962.085 0 0 1-4-2.938l-2.25-1.652L151 368v-1Z" fill="#3B393B"/><path d="m367 177 1 3-1 2h-6c1.127-3.38 2.212-5 6-5Z" fill="#2D885A"/><path d="M289 167c4.248.472 6.2 2.967 9 6l-2 1a340.172 340.172 0 0 1-3.5-2.375l-1.969-1.336L289 169v-2Z" fill="#E8F1ED"/><path d="m207 124 5 1c-.573 2.867-.861 3.861-3 6l-1-2h-3l1-1.938c1.073-1.83 1.073-1.83 1-3.062Z" fill="#2B8758"/><path d="M374 103h9l1 3-8 1-2-4Z" fill="#46956D"/><path d="m325 66 4 2c-2 3-2 3-4 3.813L323 72l-2-2-1 2v-3l5-1v-2Z" fill="#1F5B3C"/><path d="m273 41 1 2-2.375.75c-2.948 1.404-3.527 2.257-4.625 5.25l-4-1 10-7Z" fill="#3B6E5B"/><path d="M102 326c3.817 1.555 6.192 4.036 9 7-3.87-.573-6.152-2.39-9-5v-2Z" fill="#312F32"/><path d="m190 298 1 2 2 1v2l2 2-6 1-1-6h2v-2Z" fill="#64AA84"/><path d="M55 288c3.817 1.555 6.192 4.036 9 7-3.87-.573-6.152-2.39-9-5v-2Z" fill="#343235"/><path d="M544 152h1c-.492 6.523-.492 6.523-3.063 8.938L540 162l-1-3 1.938-1.813c2.265-2.095 2.265-2.095 3.062-5.187Z" fill="#6C696D"/><path d="M437 126c2.55 1.275 2.93 2.403 4 5v3c-1.938-.688-1.938-.688-4-2-.813-2.563-.813-2.563-1-5l1-1Z" fill="#CFE2D9"/><path d="M392 92c1.938.375 1.938.375 4 1l1 2-13 2 1-2 6-1 1-2Z" fill="#1A7D4D"/><path d="m261 49 2 1c-4.75 4-4.75 4-7 4l-1 3-4-1 10-7Z" fill="#446C60"/><path d="M228 318a99.984 99.984 0 0 1 5 0c1 1 1 1 1.063 3.563L234 324l2 1h-4v-6l-4-1Z" fill="#C1DACD"/><path d="m340 227 1 4h-3v-2h-2v2l-3 1-2-2c6.75-3 6.75-3 9-3Z" fill="#2F8A5A"/><path d="m291 152 2 3c-3 2-3 2-7 2l1-4 4-1Z" fill="#3B9065"/><path d="M374 118c.625 1.813.625 1.813 1 4l-2 3c-2.164.293-2.164.293-4.625.188l-2.477-.083L364 125v-1h8l-1-4h2l1-2Z" fill="#187D4D"/><path d="m349 38 5 2v2l-8 1 2-1c.652-2.025.652-2.025 1-4Z" fill="#B89422"/><path d="M283 35v3a135.916 135.916 0 0 1-7 3l-2-1a466.06 466.06 0 0 1 3.375-2.5l1.898-1.406C281 35 281 35 283 35Z" fill="#316A54"/><path d="m327 3 2 1c-4.75 4.875-4.75 4.875-7 6l-2-2 7-5Z" fill="#2B664D"/><path d="M212 334c1.5 1.375 1.5 1.375 3 3v2c-5.538-.615-5.538-.615-7.875-2.563L206 335l6 1v-2Z" fill="#CEE1D8"/><path d="m212 330 2.813 1c3.107 1.15 3.107 1.15 6.187 1l1 3c-3.558-.61-6.683-1.578-10-3v-2Z" fill="#CCE0D6"/><path d="m329 314 2 1c-1.188 2.5-1.188 2.5-3 5-2.688.313-2.688.313-5 0l6-6Z" fill="#858187"/><path d="M196 312c3 1 3 1 4.188 3.063L201 317c-2.375.188-2.375.188-5 0l-2-3 2-2Z" fill="#67AD86"/><path d="m199 302 3 2v3l-3 1-3-3 3-1v-2Z" fill="#67AB86"/><path d="M258 265c2.44 1.926 4.8 3.8 7 6h-6c-1.063-1.875-1.063-1.875-2-4l1-2Z" fill="#F5F9F7"/><path d="m62 254 4 1-1 4h-4l-1-2h2v-3Z" fill="#B4D3C3"/><path d="M466 157c-.313 1.938-.313 1.938-1 4l-3 1-2-1v-3c2.076-.553 3.844-1 6-1Z" fill="#1A7B4D"/><path d="m411 157 2 1v5l-2 1v-2l-3-1 3-4Z" fill="#1A7E4E"/><path d="m162 157 1 2 2 1c-3 2-3 2-7 2v-3l4-2Z" fill="#3C9264"/><path d="m349 150 1 4c-5.75-.75-5.75-.75-8-3 2.463-1.231 4.28-1.072 7-1Z" fill="#258455"/><path d="M314 324c-1.186 3.375-2.276 5.647-5 8-.75-1.75-.75-1.75-1-4 3.222-4 3.222-4 6-4Z" fill="#6A947E"/><path d="M212 327h2l-2 5 2 1h-4l-1-2c1.375-2 1.375-2 3-4Z" fill="#67AE88"/><path d="M321 320h5a141.4 141.4 0 0 1-5 5h-2l2-5Z" fill="#716F73"/><path d="m52 284 9 1c-1 2-1 2-4 4l-5-5Z" fill="#689F83"/><path d="m326 269 2 3c-.875 2.688-.875 2.688-2 5l-3-2c.375-2.438.375-2.438 1-5l2-1Z" fill="#399062"/><path d="M42 203v5l-3-1c-2.143.39-2.143.39-4 1 4.75-5 4.75-5 7-5Z" fill="#5E8E75"/><path d="M406.438 149.75 409 150l2 3-2 2-2-2a88.982 88.982 0 0 0-4-2c1-1 1-1 3.438-1.25Z" fill="#C1DBCE"/><path d="m201 145 4 2-3 6c-2-3-2-3-1.625-5.688L201 145Z" fill="#308A5C"/><path d="m427 135 5 1v3l-5-1v-3Z" fill="#0A7242"/><path d="m348 122 12 1v1l-2.082.184-2.73.254c-.894.08-1.787.162-2.708.246-2.607.25-2.607.25-5.48 1.316l1-4Z" fill="#2E895C"/><path d="M366 111h3l1 2 3 2h-3v2l-3-1-1-5Z" fill="#4E9A73"/><path d="m334 40 3 3-1 3-4-2 2-4Z" fill="#D8A525"/><path d="M362 41h5v3l-6 2c0-3 0-3 1-5Z" fill="#2A4337"/><path d="m266 355 6 1-3 5-2-1 1-2-2-1v-2Z" fill="#67927B"/><path d="M283 324h3l-1 4 4 2h-6c-1-3-1-3 0-6Z" fill="#47956B"/><path d="m349 207-1 3c-2.438-.375-2.438-.375-5-1l-1-2c3.01-.934 3.867-1.044 7 0Z" fill="#2A8657"/><path d="M399 194c2.972 1.125 5.334 2.223 8 4l-1 2-3-1-1-2-2 1-1-4Z" fill="#C2DACE"/><path d="m520 173 4 2-7 4-1-3 4-3Z" fill="#7A787D"/><path d="m164 144 3 1-1 4-4 1v-3h2v-3Z" fill="#389061"/><path d="m332 132 2 1c-2.49 2.667-4.634 4.557-8 6 1.393-3.367 2.979-4.986 6-7Z" fill="#DEEBE5"/><path d="m193 123 2 1-1 3c-3.063 1.188-3.063 1.188-6 2 .813-2.438.813-2.438 2-5l3-1Z" fill="#2C8858"/><path d="m359 75 2 4-3 3-3-1 3-1-1-4 2-1Z" fill="#067342"/><path d="m316 72 6 1-2 4-3-1c-.688-2.063-.688-2.063-1-4Z" fill="#1F5B3C"/><path d="M308 332c-2.313 2.063-2.313 2.063-5 4l-3-1c2-3 2-3 4-3.75 2-.25 2-.25 4 .75Z" fill="#7C9188"/><path d="M238 311c3.375.547 5.082 1.055 8 3l-1 3v-2h-4v-3l-3-1Z" fill="#D1E3DA"/><path d="m347 294 4 3c-3.75 3-3.75 3-6 3l2-6Z" fill="#399062"/><path d="m222 291 3 1-1 5-4-3 2-3Z" fill="#55A479"/><path d="m286 237 3 1h-2v2h2v2l-5-1v-3l2-1Z" fill="#4F9D73"/><path d="m58 223 3 1-6 5-2-1 5-5Z" fill="#51D7F7"/><path d="m448 169 3 1-1 5h-3c-.625-1.875-.625-1.875-1-4l2-2Z" fill="#057141"/><path d="m359 153 2 1-5 6-3-1v-2a125.024 125.024 0 0 1 6-4Z" fill="#288657"/><path d="m221 141 2 1-.563 1.875c-.674 2.167-.674 2.167.563 4.125l-5-1c1.875-4.875 1.875-4.875 3-6Z" fill="#2B8858"/><path d="m368 132 3 1 1 5h-3l-1-6Z" fill="#7CB496"/><path d="m184 118 5 1-1 4-4 1v-6Z" fill="#298657"/><path d="M545 235h1v7h-1v-7Z" fill="#666769"/></svg>
